<?xml version="1.0" encoding="UTF-8" standalone="no"?>
<!DOCTYPE svg PUBLIC "-//W3C//DTD SVG 1.1//EN"
 "http://www.w3.org/Graphics/SVG/1.1/DTD/svg11.dtd">
<!-- Generated by graphviz version 2.40.1 (20161225.0304)
 -->
<!-- Title: accounts Pages: 1 -->
<svg width="2040pt" height="712pt"
 viewBox="0.00 0.00 2040.00 712.00" xmlns="http://www.w3.org/2000/svg" xmlns:xlink="http://www.w3.org/1999/xlink">
<g id="graph0" class="graph" transform="scale(1 1) rotate(0) translate(4 708)">
<title>accounts</title>
<polygon fill="#ffffff" stroke="transparent" points="-4,4 -4,-708 2036,-708 2036,4 -4,4"/>
<!-- accounts -->
<g id="node1" class="node">
<title>accounts</title>
<polygon fill="#efefef" stroke="transparent" points="1103,-315.5 1103,-350.5 1261,-350.5 1261,-315.5 1103,-315.5"/>
<polygon fill="none" stroke="#000000" points="1103,-315.5 1103,-350.5 1261,-350.5 1261,-315.5 1103,-315.5"/>
<text text-anchor="start" x="1109.821" y="-328.3" font-family="Arial Bold" font-size="18.00" fill="#000000">accounts</text>
<text text-anchor="start" x="1181.848" y="-328.3" font-family="Arial" font-size="14.00" fill="#000000">    </text>
<text text-anchor="start" x="1216.0528" y="-328.3" font-family="Arial" font-size="14.00" fill="#666666">[table]</text>
<polygon fill="none" stroke="#000000" points="1103,-285.5 1103,-315.5 1261,-315.5 1261,-285.5 1103,-285.5"/>
<text text-anchor="start" x="1110" y="-296.9" font-family="Arial" font-size="14.00" fill="#000000">account_id </text>
<text text-anchor="start" x="1181.5834" y="-296.9" font-family="Arial" font-size="14.00" fill="#666666">[INTEGER]</text>
<polygon fill="none" stroke="#000000" points="1103,-255.5 1103,-285.5 1261,-285.5 1261,-255.5 1103,-255.5"/>
<text text-anchor="start" x="1110" y="-266.9" font-family="Arial" font-size="14.00" fill="#000000">created_at </text>
<text text-anchor="start" x="1180.028" y="-266.9" font-family="Arial" font-size="14.00" fill="#666666">[TEXT]</text>
<polygon fill="none" stroke="#000000" points="1103,-225.5 1103,-255.5 1261,-255.5 1261,-225.5 1103,-225.5"/>
<text text-anchor="start" x="1110" y="-236.9" font-family="Arial" font-size="14.00" fill="#000000">password </text>
<text text-anchor="start" x="1173.7882" y="-236.9" font-family="Arial" font-size="14.00" fill="#666666">[TEXT]</text>
<polygon fill="none" stroke="#000000" points="1103,-195.5 1103,-225.5 1261,-225.5 1261,-195.5 1103,-195.5"/>
<text text-anchor="start" x="1110" y="-206.9" font-family="Arial" font-size="14.00" fill="#000000">email </text>
<text text-anchor="start" x="1147.3296" y="-206.9" font-family="Arial" font-size="14.00" fill="#666666">[TEXT]</text>
<polygon fill="none" stroke="#000000" points="1103,-165.5 1103,-195.5 1261,-195.5 1261,-165.5 1103,-165.5"/>
<text text-anchor="start" x="1110" y="-176.9" font-family="Arial" font-size="14.00" fill="#000000">login_tokens </text>
<text text-anchor="start" x="1192.4726" y="-176.9" font-family="Arial" font-size="14.00" fill="#666666">[TEXT]</text>
<polygon fill="none" stroke="#000000" points="1103,-135.5 1103,-165.5 1261,-165.5 1261,-135.5 1103,-135.5"/>
<text text-anchor="start" x="1110" y="-146.9" font-family="Arial" font-size="14.00" fill="#000000">status </text>
<text text-anchor="start" x="1151.237" y="-146.9" font-family="Arial" font-size="14.00" fill="#666666">[TEXT]</text>
<polygon fill="none" stroke="#000000" points="1103,-105.5 1103,-135.5 1261,-135.5 1261,-105.5 1103,-105.5"/>
<text text-anchor="start" x="1110" y="-116.9" font-family="Arial" font-size="14.00" fill="#000000">updated_at </text>
<text text-anchor="start" x="1183.9326" y="-116.9" font-family="Arial" font-size="14.00" fill="#666666">[TEXT]</text>
<polygon fill="none" stroke="#000000" points="1103,-75.5 1103,-105.5 1261,-105.5 1261,-75.5 1103,-75.5"/>
<text text-anchor="start" x="1110" y="-86.9" font-family="Arial" font-size="14.00" fill="#000000">username </text>
<text text-anchor="start" x="1176.1248" y="-86.9" font-family="Arial" font-size="14.00" fill="#666666">[TEXT]</text>
<polygon fill="none" stroke="#000000" points="1103,-45.5 1103,-75.5 1261,-75.5 1261,-45.5 1103,-45.5"/>
<text text-anchor="start" x="1110" y="-56.9" font-family="Arial" font-size="14.00" fill="#000000">account_type </text>
<text text-anchor="start" x="1197.15" y="-56.9" font-family="Arial" font-size="14.00" fill="#666666">[TEXT]</text>
<polygon fill="none" stroke="#000000" stroke-width="3" points="1101.5,-44.5 1101.5,-352.5 1262.5,-352.5 1262.5,-44.5 1101.5,-44.5"/>
</g>
<!-- messages -->
<g id="node2" class="node">
<title>messages</title>
<polygon fill="#efefef" stroke="transparent" points="426,-625.5 426,-660.5 619,-660.5 619,-625.5 426,-625.5"/>
<polygon fill="none" stroke="#000000" points="426,-625.5 426,-660.5 619,-660.5 619,-625.5 426,-625.5"/>
<text text-anchor="start" x="445.326" y="-638.3" font-family="Arial Bold" font-size="18.00" fill="#000000">messages</text>
<text text-anchor="start" x="527.343" y="-638.3" font-family="Arial" font-size="14.00" fill="#000000">    </text>
<text text-anchor="start" x="561.5478" y="-638.3" font-family="Arial" font-size="14.00" fill="#666666">[table]</text>
<polygon fill="none" stroke="#000000" points="426,-595.5 426,-625.5 619,-625.5 619,-595.5 426,-595.5"/>
<text text-anchor="start" x="432.6655" y="-606.9" font-family="Arial" font-size="14.00" fill="#000000">message_id    </text>
<text text-anchor="start" x="542.3331" y="-606.9" font-family="Arial" font-size="14.00" fill="#666666">[INTEGER]</text>
<polygon fill="none" stroke="#000000" points="426,-565.5 426,-595.5 619,-595.5 619,-565.5 426,-565.5"/>
<text text-anchor="start" x="433" y="-576.9" font-family="Arial" font-size="14.00" fill="#000000">room_id    </text>
<text text-anchor="start" x="517.763" y="-576.9" font-family="Arial" font-size="14.00" fill="#666666">[INTEGER]</text>
<polygon fill="none" stroke="#000000" points="426,-535.5 426,-565.5 619,-565.5 619,-535.5 426,-535.5"/>
<text text-anchor="start" x="433" y="-546.9" font-family="Arial" font-size="14.00" fill="#000000">msg    </text>
<text text-anchor="start" x="493.648" y="-546.9" font-family="Arial" font-size="14.00" fill="#666666">[TEXT]</text>
<polygon fill="none" stroke="#000000" points="426,-505.5 426,-535.5 619,-535.5 619,-505.5 426,-505.5"/>
<text text-anchor="start" x="433" y="-516.9" font-family="Arial" font-size="14.00" fill="#000000">account_id    </text>
<text text-anchor="start" x="534.8976" y="-516.9" font-family="Arial" font-size="14.00" fill="#666666">[INTEGER]</text>
<polygon fill="none" stroke="#000000" points="426,-475.5 426,-505.5 619,-505.5 619,-475.5 426,-475.5"/>
<text text-anchor="start" x="433" y="-486.9" font-family="Arial" font-size="14.00" fill="#000000">updated_at    </text>
<text text-anchor="start" x="537.2468" y="-486.9" font-family="Arial" font-size="14.00" fill="#666666">[TEXT]</text>
</g>
<!-- messages&#45;&gt;accounts -->
<g id="edge1" class="edge">
<title>messages:account_id&#45;&gt;accounts:account_id</title>
<path fill="none" stroke="#000000" d="M629.0466,-519.2385C659.4545,-510.4986 637.7507,-458.5505 670,-433 827.7443,-308.0221 901.747,-300.5 1103,-300.5"/>
<polygon fill="#000000" stroke="#000000" points="628.9221,-519.2541 618.4393,-516.0351 623.961,-519.877 619,-520.5 619,-520.5 619,-520.5 623.961,-519.877 619.5607,-524.9649 628.9221,-519.2541 628.9221,-519.2541"/>
<text text-anchor="start" x="7.4855" y="-530.5" font-family="Arial" font-size="10.00" fill="#000000">FOREIGN KEY (account_id) REFERENCES accounts (account_id) ON UPDATE NO ACTION ON DELETE NO ACTION MATCH NONE</text>
</g>
<!-- room_participants -->
<g id="node3" class="node">
<title>room_participants</title>
<polygon fill="#efefef" stroke="transparent" points="723,-580.5 723,-615.5 952,-615.5 952,-580.5 723,-580.5"/>
<polygon fill="none" stroke="#000000" points="723,-580.5 723,-615.5 952,-615.5 952,-580.5 723,-580.5"/>
<text text-anchor="start" x="729.825" y="-593.3" font-family="Arial Bold" font-size="18.00" fill="#000000">room_participants</text>
<text text-anchor="start" x="872.844" y="-593.3" font-family="Arial" font-size="14.00" fill="#000000">    </text>
<text text-anchor="start" x="907.0488" y="-593.3" font-family="Arial" font-size="14.00" fill="#666666">[table]</text>
<polygon fill="none" stroke="#000000" points="723,-550.5 723,-580.5 952,-580.5 952,-550.5 723,-550.5"/>
<text text-anchor="start" x="730" y="-561.9" font-family="Arial" font-size="14.00" fill="#000000">room_id    </text>
<text text-anchor="start" x="814.763" y="-561.9" font-family="Arial" font-size="14.00" fill="#666666">[INTEGER]</text>
<polygon fill="none" stroke="#000000" points="723,-520.5 723,-550.5 952,-550.5 952,-520.5 723,-520.5"/>
<text text-anchor="start" x="730" y="-531.9" font-family="Arial" font-size="14.00" fill="#000000">account_id    </text>
<text text-anchor="start" x="831.8976" y="-531.9" font-family="Arial" font-size="14.00" fill="#666666">[INTEGER]</text>
</g>
<!-- room_participants&#45;&gt;accounts -->
<g id="edge2" class="edge">
<title>room_participants:account_id&#45;&gt;accounts:account_id</title>
<path fill="none" stroke="#000000" d="M962.1528,-534.5539C999.5112,-526.8137 979.0566,-473.1783 1004,-433 1042.7728,-370.5455 1029.4888,-300.5 1103,-300.5"/>
<polygon fill="#000000" stroke="#000000" points="961.9569,-534.5721 951.5824,-531.0194 956.9784,-535.036 952,-535.5 952,-535.5 952,-535.5 956.9784,-535.036 952.4176,-539.9806 961.9569,-534.5721 961.9569,-534.5721"/>
<text text-anchor="start" x="959.4855" y="-545.5" font-family="Arial" font-size="10.00" fill="#000000">FOREIGN KEY (account_id) REFERENCES accounts (account_id) ON UPDATE NO ACTION ON DELETE NO ACTION MATCH NONE</text>
</g>
<!-- user_characters -->
<g id="node4" class="node">
<title>user_characters</title>
<polygon fill="#efefef" stroke="transparent" points="1056,-595.5 1056,-630.5 1308,-630.5 1308,-595.5 1056,-595.5"/>
<polygon fill="none" stroke="#000000" points="1056,-595.5 1056,-630.5 1308,-630.5 1308,-595.5 1056,-595.5"/>
<text text-anchor="start" x="1081.3234" y="-608.3" font-family="Arial Bold" font-size="18.00" fill="#000000">user_characters</text>
<text text-anchor="start" x="1210.3456" y="-608.3" font-family="Arial" font-size="14.00" fill="#000000">    </text>
<text text-anchor="start" x="1244.5504" y="-608.3" font-family="Arial" font-size="14.00" fill="#666666">[table]</text>
<polygon fill="none" stroke="#000000" points="1056,-565.5 1056,-595.5 1308,-595.5 1308,-565.5 1056,-565.5"/>
<text text-anchor="start" x="1063" y="-576.9" font-family="Arial" font-size="14.00" fill="#000000">account_id    </text>
<text text-anchor="start" x="1164.8976" y="-576.9" font-family="Arial" font-size="14.00" fill="#666666">[INTEGER]</text>
<polygon fill="none" stroke="#000000" points="1056,-535.5 1056,-565.5 1308,-565.5 1308,-535.5 1056,-535.5"/>
<text text-anchor="start" x="1062.9881" y="-546.9" font-family="Arial" font-size="14.00" fill="#000000">character_account_id    </text>
<text text-anchor="start" x="1231.0105" y="-546.9" font-family="Arial" font-size="14.00" fill="#666666">[INTEGER]</text>
<polygon fill="none" stroke="#000000" points="1056,-505.5 1056,-535.5 1308,-535.5 1308,-505.5 1056,-505.5"/>
<text text-anchor="start" x="1063" y="-516.9" font-family="Arial" font-size="14.00" fill="#000000">index    </text>
<text text-anchor="start" x="1130.6592" y="-516.9" font-family="Arial" font-size="14.00" fill="#666666">[INTEGER]</text>
</g>
<!-- user_characters&#45;&gt;accounts -->
<g id="edge3" class="edge">
<title>user_characters:character_account_id&#45;&gt;accounts:account_id</title>
<path fill="none" stroke="#000000" d="M1317.6653,-547.5182C1358.4306,-519.312 1313.8853,-300.5 1261,-300.5"/>
<polygon fill="#000000" stroke="#000000" points="1317.5556,-547.552 1306.6734,-546.2 1312.7778,-549.026 1308,-550.5 1308,-550.5 1308,-550.5 1312.7778,-549.026 1309.3266,-554.8 1317.5556,-547.552 1317.5556,-547.552"/>
<text text-anchor="start" x="1314.8695" y="-560.5" font-family="Arial" font-size="10.00" fill="#000000">FOREIGN KEY (character_account_id) REFERENCES accounts (account_id) ON UPDATE NO ACTION ON DELETE NO ACTION MATCH NONE</text>
</g>
<!-- user_characters&#45;&gt;accounts -->
<g id="edge4" class="edge">
<title>user_characters:account_id&#45;&gt;accounts:account_id</title>
<path fill="none" stroke="#000000" d="M1317.6783,-577.9069C1365.7169,-549.6795 1320.5191,-300.5 1261,-300.5"/>
<polygon fill="#000000" stroke="#000000" points="1317.6593,-577.9119 1306.8354,-576.1533 1312.8297,-579.206 1308,-580.5 1308,-580.5 1308,-580.5 1312.8297,-579.206 1309.1646,-584.8467 1317.6593,-577.9119 1317.6593,-577.9119"/>
<text text-anchor="start" x="696.4855" y="-590.5" font-family="Arial" font-size="10.00" fill="#000000">FOREIGN KEY (account_id) REFERENCES accounts (account_id) ON UPDATE NO ACTION ON DELETE NO ACTION MATCH NONE</text>
</g>
<!-- user_permissions -->
<g id="node5" class="node">
<title>user_permissions</title>
<polygon fill="#efefef" stroke="transparent" points="1413,-580.5 1413,-615.5 1640,-615.5 1640,-580.5 1413,-580.5"/>
<polygon fill="none" stroke="#000000" points="1413,-580.5 1413,-615.5 1640,-615.5 1640,-580.5 1413,-580.5"/>
<text text-anchor="start" x="1419.8303" y="-593.3" font-family="Arial Bold" font-size="18.00" fill="#000000">user_permissions</text>
<text text-anchor="start" x="1560.8387" y="-593.3" font-family="Arial" font-size="14.00" fill="#000000">    </text>
<text text-anchor="start" x="1595.0435" y="-593.3" font-family="Arial" font-size="14.00" fill="#666666">[table]</text>
<polygon fill="none" stroke="#000000" points="1413,-550.5 1413,-580.5 1640,-580.5 1640,-550.5 1413,-550.5"/>
<text text-anchor="start" x="1420" y="-561.9" font-family="Arial" font-size="14.00" fill="#000000">account_id    </text>
<text text-anchor="start" x="1521.8976" y="-561.9" font-family="Arial" font-size="14.00" fill="#666666">[INTEGER]</text>
<polygon fill="none" stroke="#000000" points="1413,-520.5 1413,-550.5 1640,-550.5 1640,-520.5 1413,-520.5"/>
<text text-anchor="start" x="1420" y="-531.9" font-family="Arial" font-size="14.00" fill="#000000">permission_id    </text>
<text text-anchor="start" x="1540.5414" y="-531.9" font-family="Arial" font-size="14.00" fill="#666666">[INTEGER]</text>
</g>
<!-- user_permissions&#45;&gt;accounts -->
<g id="edge5" class="edge">
<title>user_permissions:account_id&#45;&gt;accounts:account_id</title>
<path fill="none" stroke="#000000" d="M1402.8955,-564.725C1354.1832,-556.5305 1389.2057,-485.0787 1360,-433 1324.0431,-368.8829 1334.5112,-300.5 1261,-300.5"/>
<polygon fill="#000000" stroke="#000000" points="1403.0293,-564.7352 1412.6558,-569.9868 1408.0146,-565.1176 1413,-565.5 1413,-565.5 1413,-565.5 1408.0146,-565.1176 1413.3442,-561.0132 1403.0293,-564.7352 1403.0293,-564.7352"/>
<text text-anchor="start" x="1420.4855" y="-575.5" font-family="Arial" font-size="10.00" fill="#000000">FOREIGN KEY (account_id) REFERENCES accounts (account_id) ON UPDATE NO ACTION ON DELETE NO ACTION MATCH NONE</text>
</g>
</g>
</svg>
