<?xml version="1.0" encoding="UTF-8" standalone="no"?>
<!DOCTYPE svg PUBLIC "-//W3C//DTD SVG 1.1//EN"
 "http://www.w3.org/Graphics/SVG/1.1/DTD/svg11.dtd">
<!-- Generated by graphviz version 2.40.1 (20161225.0304)
 -->
<!-- Title: messages Pages: 1 -->
<svg width="1377pt" height="712pt"
 viewBox="0.00 0.00 1377.00 712.00" xmlns="http://www.w3.org/2000/svg" xmlns:xlink="http://www.w3.org/1999/xlink">
<g id="graph0" class="graph" transform="scale(1 1) rotate(0) translate(4 708)">
<title>messages</title>
<polygon fill="#ffffff" stroke="transparent" points="-4,4 -4,-708 1373,-708 1373,4 -4,4"/>
<!-- messages -->
<g id="node1" class="node">
<title>messages</title>
<polygon fill="#efefef" stroke="transparent" points="582,-622.5 582,-657.5 750,-657.5 750,-622.5 582,-622.5"/>
<polygon fill="none" stroke="#000000" points="582,-622.5 582,-657.5 750,-657.5 750,-622.5 582,-622.5"/>
<text text-anchor="start" x="588.826" y="-635.3" font-family="Arial Bold" font-size="18.00" fill="#000000">messages</text>
<text text-anchor="start" x="670.843" y="-635.3" font-family="Arial" font-size="14.00" fill="#000000">    </text>
<text text-anchor="start" x="705.0478" y="-635.3" font-family="Arial" font-size="14.00" fill="#666666">[table]</text>
<polygon fill="none" stroke="#000000" points="582,-592.5 582,-622.5 750,-622.5 750,-592.5 582,-592.5"/>
<text text-anchor="start" x="589" y="-603.9" font-family="Arial" font-size="14.00" fill="#000000">message_id </text>
<text text-anchor="start" x="668.3534" y="-603.9" font-family="Arial" font-size="14.00" fill="#666666">[INTEGER]</text>
<polygon fill="none" stroke="#000000" points="582,-562.5 582,-592.5 750,-592.5 750,-562.5 582,-562.5"/>
<text text-anchor="start" x="589" y="-573.9" font-family="Arial" font-size="14.00" fill="#000000">room_id </text>
<text text-anchor="start" x="643.4488" y="-573.9" font-family="Arial" font-size="14.00" fill="#666666">[INTEGER]</text>
<polygon fill="none" stroke="#000000" points="582,-532.5 582,-562.5 750,-562.5 750,-532.5 582,-532.5"/>
<text text-anchor="start" x="589" y="-543.9" font-family="Arial" font-size="14.00" fill="#000000">msg </text>
<text text-anchor="start" x="619.3338" y="-543.9" font-family="Arial" font-size="14.00" fill="#666666">[TEXT]</text>
<polygon fill="none" stroke="#000000" points="582,-502.5 582,-532.5 750,-532.5 750,-502.5 582,-502.5"/>
<text text-anchor="start" x="589" y="-513.9" font-family="Arial" font-size="14.00" fill="#000000">account_id </text>
<text text-anchor="start" x="660.5834" y="-513.9" font-family="Arial" font-size="14.00" fill="#666666">[INTEGER]</text>
<polygon fill="none" stroke="#000000" points="582,-472.5 582,-502.5 750,-502.5 750,-472.5 582,-472.5"/>
<text text-anchor="start" x="589" y="-483.9" font-family="Arial" font-size="14.00" fill="#000000">updated_at </text>
<text text-anchor="start" x="662.9326" y="-483.9" font-family="Arial" font-size="14.00" fill="#666666">[TEXT]</text>
<polygon fill="none" stroke="#000000" stroke-width="3" points="580.5,-471.5 580.5,-659.5 751.5,-659.5 751.5,-471.5 580.5,-471.5"/>
</g>
<!-- rooms -->
<g id="node2" class="node">
<title>rooms</title>
<polygon fill="#efefef" stroke="transparent" points="434,-252.5 434,-287.5 612,-287.5 612,-252.5 434,-252.5"/>
<polygon fill="none" stroke="#000000" points="434,-252.5 434,-287.5 612,-287.5 612,-252.5 434,-252.5"/>
<text text-anchor="start" x="461.8361" y="-265.3" font-family="Arial Bold" font-size="18.00" fill="#000000">rooms</text>
<text text-anchor="start" x="511.8329" y="-265.3" font-family="Arial" font-size="14.00" fill="#000000">    </text>
<text text-anchor="start" x="546.0377" y="-265.3" font-family="Arial" font-size="14.00" fill="#666666">[table]</text>
<polygon fill="none" stroke="#000000" points="434,-222.5 434,-252.5 612,-252.5 612,-222.5 434,-222.5"/>
<text text-anchor="start" x="441" y="-233.9" font-family="Arial" font-size="14.00" fill="#000000">room_id    </text>
<text text-anchor="start" x="525.763" y="-233.9" font-family="Arial" font-size="14.00" fill="#666666">[INTEGER]</text>
<polygon fill="none" stroke="#000000" points="434,-192.5 434,-222.5 612,-222.5 612,-192.5 434,-192.5"/>
<text text-anchor="start" x="441" y="-203.9" font-family="Arial" font-size="14.00" fill="#000000">updated_at    </text>
<text text-anchor="start" x="545.2468" y="-203.9" font-family="Arial" font-size="14.00" fill="#666666">[TEXT]</text>
<polygon fill="none" stroke="#000000" points="434,-162.5 434,-192.5 612,-192.5 612,-162.5 434,-162.5"/>
<text text-anchor="start" x="441" y="-173.9" font-family="Arial" font-size="14.00" fill="#000000">topic    </text>
<text text-anchor="start" x="504.7672" y="-173.9" font-family="Arial" font-size="14.00" fill="#666666">[TEXT]</text>
<polygon fill="none" stroke="#000000" points="434,-132.5 434,-162.5 612,-162.5 612,-132.5 434,-132.5"/>
<text text-anchor="start" x="441" y="-143.9" font-family="Arial" font-size="14.00" fill="#000000">name    </text>
<text text-anchor="start" x="510.2132" y="-143.9" font-family="Arial" font-size="14.00" fill="#666666">[TEXT]</text>
<polygon fill="none" stroke="#000000" points="434,-102.5 434,-132.5 612,-132.5 612,-102.5 434,-102.5"/>
<text text-anchor="start" x="440.9411" y="-113.9" font-family="Arial" font-size="14.00" fill="#000000">last_message    </text>
<text text-anchor="start" x="561.4993" y="-113.9" font-family="Arial" font-size="14.00" fill="#666666">[TEXT]</text>
</g>
<!-- messages&#45;&gt;rooms -->
<g id="edge1" class="edge">
<title>messages:room_id&#45;&gt;rooms:room_id</title>
<path fill="none" stroke="#000000" d="M571.7684,-577.0516C479.7334,-568.407 595.9029,-436.4783 612,-331 618.2692,-289.9201 653.5556,-237.5 612,-237.5"/>
<polygon fill="#000000" stroke="#000000" points="572.0096,-577.0621 581.803,-581.9957 577.0048,-577.2811 582,-577.5 582,-577.5 582,-577.5 577.0048,-577.2811 582.197,-573.0043 572.0096,-577.0621 572.0096,-577.0621"/>
<text text-anchor="start" x="6.844" y="-587.5" font-family="Arial" font-size="10.00" fill="#000000">FOREIGN KEY (room_id) REFERENCES rooms (room_id) ON UPDATE NO ACTION ON DELETE NO ACTION MATCH NONE</text>
</g>
<!-- accounts -->
<g id="node3" class="node">
<title>accounts</title>
<polygon fill="#efefef" stroke="transparent" points="717,-312.5 717,-347.5 902,-347.5 902,-312.5 717,-312.5"/>
<polygon fill="none" stroke="#000000" points="717,-312.5 717,-347.5 902,-347.5 902,-312.5 717,-312.5"/>
<text text-anchor="start" x="737.321" y="-325.3" font-family="Arial Bold" font-size="18.00" fill="#000000">accounts</text>
<text text-anchor="start" x="809.348" y="-325.3" font-family="Arial" font-size="14.00" fill="#000000">    </text>
<text text-anchor="start" x="843.5528" y="-325.3" font-family="Arial" font-size="14.00" fill="#666666">[table]</text>
<polygon fill="none" stroke="#000000" points="717,-282.5 717,-312.5 902,-312.5 902,-282.5 717,-282.5"/>
<text text-anchor="start" x="723.5505" y="-293.9" font-family="Arial" font-size="14.00" fill="#000000">account_id    </text>
<text text-anchor="start" x="825.4481" y="-293.9" font-family="Arial" font-size="14.00" fill="#666666">[INTEGER]</text>
<polygon fill="none" stroke="#000000" points="717,-252.5 717,-282.5 902,-282.5 902,-252.5 717,-252.5"/>
<text text-anchor="start" x="724" y="-263.9" font-family="Arial" font-size="14.00" fill="#000000">created_at    </text>
<text text-anchor="start" x="824.3422" y="-263.9" font-family="Arial" font-size="14.00" fill="#666666">[TEXT]</text>
<polygon fill="none" stroke="#000000" points="717,-222.5 717,-252.5 902,-252.5 902,-222.5 717,-222.5"/>
<text text-anchor="start" x="724" y="-233.9" font-family="Arial" font-size="14.00" fill="#000000">password    </text>
<text text-anchor="start" x="818.1024" y="-233.9" font-family="Arial" font-size="14.00" fill="#666666">[TEXT]</text>
<polygon fill="none" stroke="#000000" points="717,-192.5 717,-222.5 902,-222.5 902,-192.5 717,-192.5"/>
<text text-anchor="start" x="724" y="-203.9" font-family="Arial" font-size="14.00" fill="#000000">email    </text>
<text text-anchor="start" x="791.6438" y="-203.9" font-family="Arial" font-size="14.00" fill="#666666">[TEXT]</text>
<polygon fill="none" stroke="#000000" points="717,-162.5 717,-192.5 902,-192.5 902,-162.5 717,-162.5"/>
<text text-anchor="start" x="724" y="-173.9" font-family="Arial" font-size="14.00" fill="#000000">login_tokens    </text>
<text text-anchor="start" x="836.7868" y="-173.9" font-family="Arial" font-size="14.00" fill="#666666">[TEXT]</text>
<polygon fill="none" stroke="#000000" points="717,-132.5 717,-162.5 902,-162.5 902,-132.5 717,-132.5"/>
<text text-anchor="start" x="724" y="-143.9" font-family="Arial" font-size="14.00" fill="#000000">status    </text>
<text text-anchor="start" x="795.5512" y="-143.9" font-family="Arial" font-size="14.00" fill="#666666">[TEXT]</text>
<polygon fill="none" stroke="#000000" points="717,-102.5 717,-132.5 902,-132.5 902,-102.5 717,-102.5"/>
<text text-anchor="start" x="724" y="-113.9" font-family="Arial" font-size="14.00" fill="#000000">updated_at    </text>
<text text-anchor="start" x="828.2468" y="-113.9" font-family="Arial" font-size="14.00" fill="#666666">[TEXT]</text>
<polygon fill="none" stroke="#000000" points="717,-72.5 717,-102.5 902,-102.5 902,-72.5 717,-72.5"/>
<text text-anchor="start" x="724" y="-83.9" font-family="Arial" font-size="14.00" fill="#000000">username    </text>
<text text-anchor="start" x="820.439" y="-83.9" font-family="Arial" font-size="14.00" fill="#666666">[TEXT]</text>
<polygon fill="none" stroke="#000000" points="717,-42.5 717,-72.5 902,-72.5 902,-42.5 717,-42.5"/>
<text text-anchor="start" x="724" y="-53.9" font-family="Arial" font-size="14.00" fill="#000000">account_type    </text>
<text text-anchor="start" x="841.4642" y="-53.9" font-family="Arial" font-size="14.00" fill="#666666">[TEXT]</text>
</g>
<!-- messages&#45;&gt;accounts -->
<g id="edge2" class="edge">
<title>messages:account_id&#45;&gt;accounts:account_id</title>
<path fill="none" stroke="#000000" d="M759.9711,-516.0471C785.3197,-507.2938 763.1575,-460.8253 750,-427 742.1314,-406.7714 724.8686,-411.2286 717,-391 701.9352,-352.2713 675.4444,-297.5 717,-297.5"/>
<polygon fill="#000000" stroke="#000000" points="759.8955,-516.058 749.3511,-513.047 754.9478,-516.779 750,-517.5 750,-517.5 750,-517.5 754.9478,-516.779 750.6489,-521.953 759.8955,-516.058 759.8955,-516.058"/>
<text text-anchor="start" x="757.4855" y="-527.5" font-family="Arial" font-size="10.00" fill="#000000">FOREIGN KEY (account_id) REFERENCES accounts (account_id) ON UPDATE NO ACTION ON DELETE NO ACTION MATCH NONE</text>
</g>
</g>
</svg>
