<?xml version="1.0" encoding="UTF-8" standalone="no"?>
<!DOCTYPE svg PUBLIC "-//W3C//DTD SVG 1.1//EN"
 "http://www.w3.org/Graphics/SVG/1.1/DTD/svg11.dtd">
<!-- Generated by graphviz version 2.40.1 (20161225.0304)
 -->
<!-- Title: permissions Pages: 1 -->
<svg width="824pt" height="472pt"
 viewBox="0.00 0.00 823.50 472.00" xmlns="http://www.w3.org/2000/svg" xmlns:xlink="http://www.w3.org/1999/xlink">
<g id="graph0" class="graph" transform="scale(1 1) rotate(0) translate(4 468)">
<title>permissions</title>
<polygon fill="#ffffff" stroke="transparent" points="-4,4 -4,-468 819.5,-468 819.5,4 -4,4"/>
<!-- permissions -->
<g id="node1" class="node">
<title>permissions</title>
<polygon fill="#efefef" stroke="transparent" points="66.5,-165.5 66.5,-200.5 248.5,-200.5 248.5,-165.5 66.5,-165.5"/>
<polygon fill="none" stroke="#000000" points="66.5,-165.5 66.5,-200.5 248.5,-200.5 248.5,-165.5 66.5,-165.5"/>
<text text-anchor="start" x="73.3357" y="-178.3" font-family="Arial Bold" font-size="18.00" fill="#000000">permissions</text>
<text text-anchor="start" x="169.3333" y="-178.3" font-family="Arial" font-size="14.00" fill="#000000">    </text>
<text text-anchor="start" x="203.5381" y="-178.3" font-family="Arial" font-size="14.00" fill="#666666">[table]</text>
<polygon fill="none" stroke="#000000" points="66.5,-135.5 66.5,-165.5 248.5,-165.5 248.5,-135.5 66.5,-135.5"/>
<text text-anchor="start" x="73.5" y="-146.9" font-family="Arial" font-size="14.00" fill="#000000">permission_id </text>
<text text-anchor="start" x="163.7272" y="-146.9" font-family="Arial" font-size="14.00" fill="#666666">[INTEGER]</text>
<polygon fill="none" stroke="#000000" points="66.5,-105.5 66.5,-135.5 248.5,-135.5 248.5,-105.5 66.5,-105.5"/>
<text text-anchor="start" x="73.5" y="-116.9" font-family="Arial" font-size="14.00" fill="#000000">updated_at </text>
<text text-anchor="start" x="147.4326" y="-116.9" font-family="Arial" font-size="14.00" fill="#666666">[TEXT]</text>
<polygon fill="none" stroke="#000000" points="66.5,-75.5 66.5,-105.5 248.5,-105.5 248.5,-75.5 66.5,-75.5"/>
<text text-anchor="start" x="73.5" y="-86.9" font-family="Arial" font-size="14.00" fill="#000000">roles </text>
<text text-anchor="start" x="107.723" y="-86.9" font-family="Arial" font-size="14.00" fill="#666666">[TEXT]</text>
<polygon fill="none" stroke="#000000" points="66.5,-45.5 66.5,-75.5 248.5,-75.5 248.5,-45.5 66.5,-45.5"/>
<text text-anchor="start" x="73.5" y="-56.9" font-family="Arial" font-size="14.00" fill="#000000">level </text>
<text text-anchor="start" x="106.169" y="-56.9" font-family="Arial" font-size="14.00" fill="#666666">[TEXT]</text>
<polygon fill="none" stroke="#000000" stroke-width="3" points="65,-44.5 65,-202.5 250,-202.5 250,-44.5 65,-44.5"/>
</g>
<!-- user_permissions -->
<g id="node2" class="node">
<title>user_permissions</title>
<polygon fill="#efefef" stroke="transparent" points="43.5,-385.5 43.5,-420.5 270.5,-420.5 270.5,-385.5 43.5,-385.5"/>
<polygon fill="none" stroke="#000000" points="43.5,-385.5 43.5,-420.5 270.5,-420.5 270.5,-385.5 43.5,-385.5"/>
<text text-anchor="start" x="50.3303" y="-398.3" font-family="Arial Bold" font-size="18.00" fill="#000000">user_permissions</text>
<text text-anchor="start" x="191.3387" y="-398.3" font-family="Arial" font-size="14.00" fill="#000000">    </text>
<text text-anchor="start" x="225.5435" y="-398.3" font-family="Arial" font-size="14.00" fill="#666666">[table]</text>
<polygon fill="none" stroke="#000000" points="43.5,-355.5 43.5,-385.5 270.5,-385.5 270.5,-355.5 43.5,-355.5"/>
<text text-anchor="start" x="50.5" y="-366.9" font-family="Arial" font-size="14.00" fill="#000000">account_id    </text>
<text text-anchor="start" x="152.3976" y="-366.9" font-family="Arial" font-size="14.00" fill="#666666">[INTEGER]</text>
<polygon fill="none" stroke="#000000" points="43.5,-325.5 43.5,-355.5 270.5,-355.5 270.5,-325.5 43.5,-325.5"/>
<text text-anchor="start" x="50.5" y="-336.9" font-family="Arial" font-size="14.00" fill="#000000">permission_id    </text>
<text text-anchor="start" x="171.0414" y="-336.9" font-family="Arial" font-size="14.00" fill="#666666">[INTEGER]</text>
</g>
<!-- user_permissions&#45;&gt;permissions -->
<g id="edge1" class="edge">
<title>user_permissions:permission_id&#45;&gt;permissions:permission_id</title>
<path fill="none" stroke="#000000" d="M156.5203,-315.3217C148.0609,-275.0317 87.1785,-292.1474 66.5,-247 48.6402,-208.0066 23.6111,-150.5 66.5,-150.5"/>
<polygon fill="#000000" stroke="#000000" points="156.5418,-315.546 153.0207,-325.9312 157.0209,-320.523 157.5,-325.5 157.5,-325.5 157.5,-325.5 157.0209,-320.523 161.9793,-325.0688 156.5418,-315.546 156.5418,-315.546"/>
<text text-anchor="start" x="164.01" y="-335.5" font-family="Arial" font-size="10.00" fill="#000000">FOREIGN KEY (permission_id) REFERENCES permissions (permission_id) ON UPDATE NO ACTION ON DELETE NO ACTION MATCH NONE</text>
</g>
</g>
</svg>
