<?xml version="1.0" encoding="UTF-8" standalone="no"?>
<!DOCTYPE svg PUBLIC "-//W3C//DTD SVG 1.1//EN"
 "http://www.w3.org/Graphics/SVG/1.1/DTD/svg11.dtd">
<!-- Generated by graphviz version 2.40.1 (20161225.0304)
 -->
<!-- Title: rooms Pages: 1 -->
<svg width="1276pt" height="592pt"
 viewBox="0.00 0.00 1276.00 592.00" xmlns="http://www.w3.org/2000/svg" xmlns:xlink="http://www.w3.org/1999/xlink">
<g id="graph0" class="graph" transform="scale(1 1) rotate(0) translate(4 588)">
<title>rooms</title>
<polygon fill="#ffffff" stroke="transparent" points="-4,4 -4,-588 1272,-588 1272,4 -4,4"/>
<!-- rooms -->
<g id="node1" class="node">
<title>rooms</title>
<polygon fill="#efefef" stroke="transparent" points="569,-195.5 569,-230.5 716,-230.5 716,-195.5 569,-195.5"/>
<polygon fill="none" stroke="#000000" points="569,-195.5 569,-230.5 716,-230.5 716,-195.5 569,-195.5"/>
<text text-anchor="start" x="581.3361" y="-208.3" font-family="Arial Bold" font-size="18.00" fill="#000000">rooms</text>
<text text-anchor="start" x="631.3329" y="-208.3" font-family="Arial" font-size="14.00" fill="#000000">    </text>
<text text-anchor="start" x="665.5377" y="-208.3" font-family="Arial" font-size="14.00" fill="#666666">[table]</text>
<polygon fill="none" stroke="#000000" points="569,-165.5 569,-195.5 716,-195.5 716,-165.5 569,-165.5"/>
<text text-anchor="start" x="576" y="-176.9" font-family="Arial" font-size="14.00" fill="#000000">room_id </text>
<text text-anchor="start" x="630.4488" y="-176.9" font-family="Arial" font-size="14.00" fill="#666666">[INTEGER]</text>
<polygon fill="none" stroke="#000000" points="569,-135.5 569,-165.5 716,-165.5 716,-135.5 569,-135.5"/>
<text text-anchor="start" x="576" y="-146.9" font-family="Arial" font-size="14.00" fill="#000000">updated_at </text>
<text text-anchor="start" x="649.9326" y="-146.9" font-family="Arial" font-size="14.00" fill="#666666">[TEXT]</text>
<polygon fill="none" stroke="#000000" points="569,-105.5 569,-135.5 716,-135.5 716,-105.5 569,-105.5"/>
<text text-anchor="start" x="576" y="-116.9" font-family="Arial" font-size="14.00" fill="#000000">topic </text>
<text text-anchor="start" x="609.453" y="-116.9" font-family="Arial" font-size="14.00" fill="#666666">[TEXT]</text>
<polygon fill="none" stroke="#000000" points="569,-75.5 569,-105.5 716,-105.5 716,-75.5 569,-75.5"/>
<text text-anchor="start" x="576" y="-86.9" font-family="Arial" font-size="14.00" fill="#000000">name </text>
<text text-anchor="start" x="614.899" y="-86.9" font-family="Arial" font-size="14.00" fill="#666666">[TEXT]</text>
<polygon fill="none" stroke="#000000" points="569,-45.5 569,-75.5 716,-75.5 716,-45.5 569,-45.5"/>
<text text-anchor="start" x="575.5982" y="-56.9" font-family="Arial" font-size="14.00" fill="#000000">last_message </text>
<text text-anchor="start" x="665.8422" y="-56.9" font-family="Arial" font-size="14.00" fill="#666666">[TEXT]</text>
<polygon fill="none" stroke="#000000" stroke-width="3" points="567,-44.5 567,-232.5 717,-232.5 717,-44.5 567,-44.5"/>
</g>
<!-- messages -->
<g id="node2" class="node">
<title>messages</title>
<polygon fill="#efefef" stroke="transparent" points="389,-505.5 389,-540.5 582,-540.5 582,-505.5 389,-505.5"/>
<polygon fill="none" stroke="#000000" points="389,-505.5 389,-540.5 582,-540.5 582,-505.5 389,-505.5"/>
<text text-anchor="start" x="408.326" y="-518.3" font-family="Arial Bold" font-size="18.00" fill="#000000">messages</text>
<text text-anchor="start" x="490.343" y="-518.3" font-family="Arial" font-size="14.00" fill="#000000">    </text>
<text text-anchor="start" x="524.5478" y="-518.3" font-family="Arial" font-size="14.00" fill="#666666">[table]</text>
<polygon fill="none" stroke="#000000" points="389,-475.5 389,-505.5 582,-505.5 582,-475.5 389,-475.5"/>
<text text-anchor="start" x="395.6655" y="-486.9" font-family="Arial" font-size="14.00" fill="#000000">message_id    </text>
<text text-anchor="start" x="505.3331" y="-486.9" font-family="Arial" font-size="14.00" fill="#666666">[INTEGER]</text>
<polygon fill="none" stroke="#000000" points="389,-445.5 389,-475.5 582,-475.5 582,-445.5 389,-445.5"/>
<text text-anchor="start" x="396" y="-456.9" font-family="Arial" font-size="14.00" fill="#000000">room_id    </text>
<text text-anchor="start" x="480.763" y="-456.9" font-family="Arial" font-size="14.00" fill="#666666">[INTEGER]</text>
<polygon fill="none" stroke="#000000" points="389,-415.5 389,-445.5 582,-445.5 582,-415.5 389,-415.5"/>
<text text-anchor="start" x="396" y="-426.9" font-family="Arial" font-size="14.00" fill="#000000">msg    </text>
<text text-anchor="start" x="456.648" y="-426.9" font-family="Arial" font-size="14.00" fill="#666666">[TEXT]</text>
<polygon fill="none" stroke="#000000" points="389,-385.5 389,-415.5 582,-415.5 582,-385.5 389,-385.5"/>
<text text-anchor="start" x="396" y="-396.9" font-family="Arial" font-size="14.00" fill="#000000">account_id    </text>
<text text-anchor="start" x="497.8976" y="-396.9" font-family="Arial" font-size="14.00" fill="#666666">[INTEGER]</text>
<polygon fill="none" stroke="#000000" points="389,-355.5 389,-385.5 582,-385.5 582,-355.5 389,-355.5"/>
<text text-anchor="start" x="396" y="-366.9" font-family="Arial" font-size="14.00" fill="#000000">updated_at    </text>
<text text-anchor="start" x="500.2468" y="-366.9" font-family="Arial" font-size="14.00" fill="#666666">[TEXT]</text>
</g>
<!-- messages&#45;&gt;rooms -->
<g id="edge1" class="edge">
<title>messages:room_id&#45;&gt;rooms:room_id</title>
<path fill="none" stroke="#000000" d="M592.0158,-459.7203C641.5474,-451.1649 592.6619,-373.9164 582,-313 579.0672,-296.2435 571.9328,-293.7565 569,-277 561.6058,-234.7533 526.1111,-180.5 569,-180.5"/>
<polygon fill="#000000" stroke="#000000" points="591.9698,-459.7238 581.6507,-456.0136 586.9849,-460.1119 582,-460.5 582,-460.5 582,-460.5 586.9849,-460.1119 582.3493,-464.9864 591.9698,-459.7238 591.9698,-459.7238"/>
<text text-anchor="start" x="6.844" y="-470.5" font-family="Arial" font-size="10.00" fill="#000000">FOREIGN KEY (room_id) REFERENCES rooms (room_id) ON UPDATE NO ACTION ON DELETE NO ACTION MATCH NONE</text>
</g>
<!-- room_participants -->
<g id="node3" class="node">
<title>room_participants</title>
<polygon fill="#efefef" stroke="transparent" points="686,-460.5 686,-495.5 915,-495.5 915,-460.5 686,-460.5"/>
<polygon fill="none" stroke="#000000" points="686,-460.5 686,-495.5 915,-495.5 915,-460.5 686,-460.5"/>
<text text-anchor="start" x="692.825" y="-473.3" font-family="Arial Bold" font-size="18.00" fill="#000000">room_participants</text>
<text text-anchor="start" x="835.844" y="-473.3" font-family="Arial" font-size="14.00" fill="#000000">    </text>
<text text-anchor="start" x="870.0488" y="-473.3" font-family="Arial" font-size="14.00" fill="#666666">[table]</text>
<polygon fill="none" stroke="#000000" points="686,-430.5 686,-460.5 915,-460.5 915,-430.5 686,-430.5"/>
<text text-anchor="start" x="693" y="-441.9" font-family="Arial" font-size="14.00" fill="#000000">room_id    </text>
<text text-anchor="start" x="777.763" y="-441.9" font-family="Arial" font-size="14.00" fill="#666666">[INTEGER]</text>
<polygon fill="none" stroke="#000000" points="686,-400.5 686,-430.5 915,-430.5 915,-400.5 686,-400.5"/>
<text text-anchor="start" x="693" y="-411.9" font-family="Arial" font-size="14.00" fill="#000000">account_id    </text>
<text text-anchor="start" x="794.8976" y="-411.9" font-family="Arial" font-size="14.00" fill="#666666">[INTEGER]</text>
</g>
<!-- room_participants&#45;&gt;rooms -->
<g id="edge2" class="edge">
<title>room_participants:room_id&#45;&gt;rooms:room_id</title>
<path fill="none" stroke="#000000" d="M675.9939,-444.7398C583.7846,-429.1963 830.826,-180.5 716,-180.5"/>
<polygon fill="#000000" stroke="#000000" points="676.0287,-444.7424 685.6591,-449.9871 681.0144,-445.1212 686,-445.5 686,-445.5 686,-445.5 681.0144,-445.1212 686.3409,-441.0129 676.0287,-444.7424 676.0287,-444.7424"/>
<text text-anchor="start" x="692.844" y="-455.5" font-family="Arial" font-size="10.00" fill="#000000">FOREIGN KEY (room_id) REFERENCES rooms (room_id) ON UPDATE NO ACTION ON DELETE NO ACTION MATCH NONE</text>
</g>
</g>
</svg>
