<?xml version="1.0" encoding="UTF-8" standalone="no"?>
<!DOCTYPE svg PUBLIC "-//W3C//DTD SVG 1.1//EN"
 "http://www.w3.org/Graphics/SVG/1.1/DTD/svg11.dtd">
<!-- Generated by graphviz version 2.40.1 (20161225.0304)
 -->
<!-- Title: room_participants Pages: 1 -->
<svg width="1438pt" height="622pt"
 viewBox="0.00 0.00 1438.00 622.00" xmlns="http://www.w3.org/2000/svg" xmlns:xlink="http://www.w3.org/1999/xlink">
<g id="graph0" class="graph" transform="scale(1 1) rotate(0) translate(4 618)">
<title>room_participants</title>
<polygon fill="#ffffff" stroke="transparent" points="-4,4 -4,-618 1434,-618 1434,4 -4,4"/>
<!-- room_participants -->
<g id="node1" class="node">
<title>room_participants</title>
<polygon fill="#efefef" stroke="transparent" points="582,-532.5 582,-567.5 811,-567.5 811,-532.5 582,-532.5"/>
<polygon fill="none" stroke="#000000" points="582,-532.5 582,-567.5 811,-567.5 811,-532.5 582,-532.5"/>
<text text-anchor="start" x="588.825" y="-545.3" font-family="Arial Bold" font-size="18.00" fill="#000000">room_participants</text>
<text text-anchor="start" x="731.844" y="-545.3" font-family="Arial" font-size="14.00" fill="#000000">    </text>
<text text-anchor="start" x="766.0488" y="-545.3" font-family="Arial" font-size="14.00" fill="#666666">[table]</text>
<polygon fill="none" stroke="#000000" points="582,-502.5 582,-532.5 811,-532.5 811,-502.5 582,-502.5"/>
<text text-anchor="start" x="589" y="-513.9" font-family="Arial" font-size="14.00" fill="#000000">room_id </text>
<text text-anchor="start" x="643.4488" y="-513.9" font-family="Arial" font-size="14.00" fill="#666666">[INTEGER]</text>
<polygon fill="none" stroke="#000000" points="582,-472.5 582,-502.5 811,-502.5 811,-472.5 582,-472.5"/>
<text text-anchor="start" x="589" y="-483.9" font-family="Arial" font-size="14.00" fill="#000000">account_id </text>
<text text-anchor="start" x="660.5834" y="-483.9" font-family="Arial" font-size="14.00" fill="#666666">[INTEGER]</text>
<polygon fill="none" stroke="#000000" stroke-width="3" points="580,-471.5 580,-569.5 812,-569.5 812,-471.5 580,-471.5"/>
</g>
<!-- rooms -->
<g id="node2" class="node">
<title>rooms</title>
<polygon fill="#efefef" stroke="transparent" points="465,-252.5 465,-287.5 643,-287.5 643,-252.5 465,-252.5"/>
<polygon fill="none" stroke="#000000" points="465,-252.5 465,-287.5 643,-287.5 643,-252.5 465,-252.5"/>
<text text-anchor="start" x="492.8361" y="-265.3" font-family="Arial Bold" font-size="18.00" fill="#000000">rooms</text>
<text text-anchor="start" x="542.8329" y="-265.3" font-family="Arial" font-size="14.00" fill="#000000">    </text>
<text text-anchor="start" x="577.0377" y="-265.3" font-family="Arial" font-size="14.00" fill="#666666">[table]</text>
<polygon fill="none" stroke="#000000" points="465,-222.5 465,-252.5 643,-252.5 643,-222.5 465,-222.5"/>
<text text-anchor="start" x="472" y="-233.9" font-family="Arial" font-size="14.00" fill="#000000">room_id    </text>
<text text-anchor="start" x="556.763" y="-233.9" font-family="Arial" font-size="14.00" fill="#666666">[INTEGER]</text>
<polygon fill="none" stroke="#000000" points="465,-192.5 465,-222.5 643,-222.5 643,-192.5 465,-192.5"/>
<text text-anchor="start" x="472" y="-203.9" font-family="Arial" font-size="14.00" fill="#000000">updated_at    </text>
<text text-anchor="start" x="576.2468" y="-203.9" font-family="Arial" font-size="14.00" fill="#666666">[TEXT]</text>
<polygon fill="none" stroke="#000000" points="465,-162.5 465,-192.5 643,-192.5 643,-162.5 465,-162.5"/>
<text text-anchor="start" x="472" y="-173.9" font-family="Arial" font-size="14.00" fill="#000000">topic    </text>
<text text-anchor="start" x="535.7672" y="-173.9" font-family="Arial" font-size="14.00" fill="#666666">[TEXT]</text>
<polygon fill="none" stroke="#000000" points="465,-132.5 465,-162.5 643,-162.5 643,-132.5 465,-132.5"/>
<text text-anchor="start" x="472" y="-143.9" font-family="Arial" font-size="14.00" fill="#000000">name    </text>
<text text-anchor="start" x="541.2132" y="-143.9" font-family="Arial" font-size="14.00" fill="#666666">[TEXT]</text>
<polygon fill="none" stroke="#000000" points="465,-102.5 465,-132.5 643,-132.5 643,-102.5 465,-102.5"/>
<text text-anchor="start" x="471.9411" y="-113.9" font-family="Arial" font-size="14.00" fill="#000000">last_message    </text>
<text text-anchor="start" x="592.4993" y="-113.9" font-family="Arial" font-size="14.00" fill="#666666">[TEXT]</text>
</g>
<!-- room_participants&#45;&gt;rooms -->
<g id="edge1" class="edge">
<title>room_participants:room_id&#45;&gt;rooms:room_id</title>
<path fill="none" stroke="#000000" d="M571.9246,-516.7931C472.7559,-501.3341 766.632,-237.5 643,-237.5"/>
<polygon fill="#000000" stroke="#000000" points="572.0245,-516.8 581.685,-521.989 577.0123,-517.15 582,-517.5 582,-517.5 582,-517.5 577.0123,-517.15 582.315,-513.011 572.0245,-516.8 572.0245,-516.8"/>
<text text-anchor="start" x="6.844" y="-527.5" font-family="Arial" font-size="10.00" fill="#000000">FOREIGN KEY (room_id) REFERENCES rooms (room_id) ON UPDATE NO ACTION ON DELETE NO ACTION MATCH NONE</text>
</g>
<!-- accounts -->
<g id="node3" class="node">
<title>accounts</title>
<polygon fill="#efefef" stroke="transparent" points="748,-312.5 748,-347.5 933,-347.5 933,-312.5 748,-312.5"/>
<polygon fill="none" stroke="#000000" points="748,-312.5 748,-347.5 933,-347.5 933,-312.5 748,-312.5"/>
<text text-anchor="start" x="768.321" y="-325.3" font-family="Arial Bold" font-size="18.00" fill="#000000">accounts</text>
<text text-anchor="start" x="840.348" y="-325.3" font-family="Arial" font-size="14.00" fill="#000000">    </text>
<text text-anchor="start" x="874.5528" y="-325.3" font-family="Arial" font-size="14.00" fill="#666666">[table]</text>
<polygon fill="none" stroke="#000000" points="748,-282.5 748,-312.5 933,-312.5 933,-282.5 748,-282.5"/>
<text text-anchor="start" x="754.5505" y="-293.9" font-family="Arial" font-size="14.00" fill="#000000">account_id    </text>
<text text-anchor="start" x="856.4481" y="-293.9" font-family="Arial" font-size="14.00" fill="#666666">[INTEGER]</text>
<polygon fill="none" stroke="#000000" points="748,-252.5 748,-282.5 933,-282.5 933,-252.5 748,-252.5"/>
<text text-anchor="start" x="755" y="-263.9" font-family="Arial" font-size="14.00" fill="#000000">created_at    </text>
<text text-anchor="start" x="855.3422" y="-263.9" font-family="Arial" font-size="14.00" fill="#666666">[TEXT]</text>
<polygon fill="none" stroke="#000000" points="748,-222.5 748,-252.5 933,-252.5 933,-222.5 748,-222.5"/>
<text text-anchor="start" x="755" y="-233.9" font-family="Arial" font-size="14.00" fill="#000000">password    </text>
<text text-anchor="start" x="849.1024" y="-233.9" font-family="Arial" font-size="14.00" fill="#666666">[TEXT]</text>
<polygon fill="none" stroke="#000000" points="748,-192.5 748,-222.5 933,-222.5 933,-192.5 748,-192.5"/>
<text text-anchor="start" x="755" y="-203.9" font-family="Arial" font-size="14.00" fill="#000000">email    </text>
<text text-anchor="start" x="822.6438" y="-203.9" font-family="Arial" font-size="14.00" fill="#666666">[TEXT]</text>
<polygon fill="none" stroke="#000000" points="748,-162.5 748,-192.5 933,-192.5 933,-162.5 748,-162.5"/>
<text text-anchor="start" x="755" y="-173.9" font-family="Arial" font-size="14.00" fill="#000000">login_tokens    </text>
<text text-anchor="start" x="867.7868" y="-173.9" font-family="Arial" font-size="14.00" fill="#666666">[TEXT]</text>
<polygon fill="none" stroke="#000000" points="748,-132.5 748,-162.5 933,-162.5 933,-132.5 748,-132.5"/>
<text text-anchor="start" x="755" y="-143.9" font-family="Arial" font-size="14.00" fill="#000000">status    </text>
<text text-anchor="start" x="826.5512" y="-143.9" font-family="Arial" font-size="14.00" fill="#666666">[TEXT]</text>
<polygon fill="none" stroke="#000000" points="748,-102.5 748,-132.5 933,-132.5 933,-102.5 748,-102.5"/>
<text text-anchor="start" x="755" y="-113.9" font-family="Arial" font-size="14.00" fill="#000000">updated_at    </text>
<text text-anchor="start" x="859.2468" y="-113.9" font-family="Arial" font-size="14.00" fill="#666666">[TEXT]</text>
<polygon fill="none" stroke="#000000" points="748,-72.5 748,-102.5 933,-102.5 933,-72.5 748,-72.5"/>
<text text-anchor="start" x="755" y="-83.9" font-family="Arial" font-size="14.00" fill="#000000">username    </text>
<text text-anchor="start" x="851.439" y="-83.9" font-family="Arial" font-size="14.00" fill="#666666">[TEXT]</text>
<polygon fill="none" stroke="#000000" points="748,-42.5 748,-72.5 933,-72.5 933,-42.5 748,-42.5"/>
<text text-anchor="start" x="755" y="-53.9" font-family="Arial" font-size="14.00" fill="#000000">account_type    </text>
<text text-anchor="start" x="872.4642" y="-53.9" font-family="Arial" font-size="14.00" fill="#666666">[TEXT]</text>
</g>
<!-- room_participants&#45;&gt;accounts -->
<g id="edge2" class="edge">
<title>room_participants:account_id&#45;&gt;accounts:account_id</title>
<path fill="none" stroke="#000000" d="M820.8071,-484.9676C833.7012,-476.2029 822.3875,-446.6226 811,-427 794.8133,-399.1075 764.1867,-418.8925 748,-391 727.1422,-355.0582 706.4444,-297.5 748,-297.5"/>
<polygon fill="#000000" stroke="#000000" points="820.6824,-484.9998 809.8749,-483.1429 815.8412,-486.2499 811,-487.5 811,-487.5 811,-487.5 815.8412,-486.2499 812.1251,-491.8571 820.6824,-484.9998 820.6824,-484.9998"/>
<text text-anchor="start" x="818.4855" y="-497.5" font-family="Arial" font-size="10.00" fill="#000000">FOREIGN KEY (account_id) REFERENCES accounts (account_id) ON UPDATE NO ACTION ON DELETE NO ACTION MATCH NONE</text>
</g>
</g>
</svg>
