<?xml version="1.0" encoding="UTF-8" standalone="no"?>
<!DOCTYPE svg PUBLIC "-//W3C//DTD SVG 1.1//EN"
 "http://www.w3.org/Graphics/SVG/1.1/DTD/svg11.dtd">
<!-- Generated by graphviz version 2.40.1 (20161225.0304)
 -->
<!-- Title: db.sqlite Pages: 1 -->
<svg width="2193pt" height="706pt"
 viewBox="0.00 0.00 2193.00 706.00" xmlns="http://www.w3.org/2000/svg" xmlns:xlink="http://www.w3.org/1999/xlink">
<g id="graph0" class="graph" transform="scale(1 1) rotate(0) translate(4 702)">
<title>db.sqlite</title>
<polygon fill="#ffffff" stroke="transparent" points="-4,4 -4,-702 2189,-702 2189,4 -4,4"/>
<!-- accounts -->
<g id="node1" class="node">
<title>accounts</title>
<polygon fill="#efefef" stroke="transparent" points="1089,-312.5 1089,-347.5 1274,-347.5 1274,-312.5 1089,-312.5"/>
<polygon fill="none" stroke="#000000" points="1089,-312.5 1089,-347.5 1274,-347.5 1274,-312.5 1089,-312.5"/>
<text text-anchor="start" x="1109.321" y="-325.3" font-family="Arial Bold" font-size="18.00" fill="#000000">accounts</text>
<text text-anchor="start" x="1181.348" y="-325.3" font-family="Arial" font-size="14.00" fill="#000000">    </text>
<text text-anchor="start" x="1215.5528" y="-325.3" font-family="Arial" font-size="14.00" fill="#666666">[table]</text>
<polygon fill="none" stroke="#000000" points="1089,-282.5 1089,-312.5 1274,-312.5 1274,-282.5 1089,-282.5"/>
<text text-anchor="start" x="1095.5505" y="-293.9" font-family="Arial" font-size="14.00" fill="#000000">account_id    </text>
<text text-anchor="start" x="1197.4481" y="-293.9" font-family="Arial" font-size="14.00" fill="#666666">[INTEGER]</text>
<polygon fill="none" stroke="#000000" points="1089,-252.5 1089,-282.5 1274,-282.5 1274,-252.5 1089,-252.5"/>
<text text-anchor="start" x="1096" y="-263.9" font-family="Arial" font-size="14.00" fill="#000000">created_at    </text>
<text text-anchor="start" x="1196.3422" y="-263.9" font-family="Arial" font-size="14.00" fill="#666666">[TEXT]</text>
<polygon fill="none" stroke="#000000" points="1089,-222.5 1089,-252.5 1274,-252.5 1274,-222.5 1089,-222.5"/>
<text text-anchor="start" x="1096" y="-233.9" font-family="Arial" font-size="14.00" fill="#000000">password    </text>
<text text-anchor="start" x="1190.1024" y="-233.9" font-family="Arial" font-size="14.00" fill="#666666">[TEXT]</text>
<polygon fill="none" stroke="#000000" points="1089,-192.5 1089,-222.5 1274,-222.5 1274,-192.5 1089,-192.5"/>
<text text-anchor="start" x="1096" y="-203.9" font-family="Arial" font-size="14.00" fill="#000000">email    </text>
<text text-anchor="start" x="1163.6438" y="-203.9" font-family="Arial" font-size="14.00" fill="#666666">[TEXT]</text>
<polygon fill="none" stroke="#000000" points="1089,-162.5 1089,-192.5 1274,-192.5 1274,-162.5 1089,-162.5"/>
<text text-anchor="start" x="1096" y="-173.9" font-family="Arial" font-size="14.00" fill="#000000">login_tokens    </text>
<text text-anchor="start" x="1208.7868" y="-173.9" font-family="Arial" font-size="14.00" fill="#666666">[TEXT]</text>
<polygon fill="none" stroke="#000000" points="1089,-132.5 1089,-162.5 1274,-162.5 1274,-132.5 1089,-132.5"/>
<text text-anchor="start" x="1096" y="-143.9" font-family="Arial" font-size="14.00" fill="#000000">status    </text>
<text text-anchor="start" x="1167.5512" y="-143.9" font-family="Arial" font-size="14.00" fill="#666666">[TEXT]</text>
<polygon fill="none" stroke="#000000" points="1089,-102.5 1089,-132.5 1274,-132.5 1274,-102.5 1089,-102.5"/>
<text text-anchor="start" x="1096" y="-113.9" font-family="Arial" font-size="14.00" fill="#000000">updated_at    </text>
<text text-anchor="start" x="1200.2468" y="-113.9" font-family="Arial" font-size="14.00" fill="#666666">[TEXT]</text>
<polygon fill="none" stroke="#000000" points="1089,-72.5 1089,-102.5 1274,-102.5 1274,-72.5 1089,-72.5"/>
<text text-anchor="start" x="1096" y="-83.9" font-family="Arial" font-size="14.00" fill="#000000">username    </text>
<text text-anchor="start" x="1192.439" y="-83.9" font-family="Arial" font-size="14.00" fill="#666666">[TEXT]</text>
<polygon fill="none" stroke="#000000" points="1089,-42.5 1089,-72.5 1274,-72.5 1274,-42.5 1089,-42.5"/>
<text text-anchor="start" x="1096" y="-53.9" font-family="Arial" font-size="14.00" fill="#000000">account_type    </text>
<text text-anchor="start" x="1213.4642" y="-53.9" font-family="Arial" font-size="14.00" fill="#666666">[TEXT]</text>
</g>
<!-- messages -->
<g id="node2" class="node">
<title>messages</title>
<polygon fill="#efefef" stroke="transparent" points="426,-619.5 426,-654.5 619,-654.5 619,-619.5 426,-619.5"/>
<polygon fill="none" stroke="#000000" points="426,-619.5 426,-654.5 619,-654.5 619,-619.5 426,-619.5"/>
<text text-anchor="start" x="445.326" y="-632.3" font-family="Arial Bold" font-size="18.00" fill="#000000">messages</text>
<text text-anchor="start" x="527.343" y="-632.3" font-family="Arial" font-size="14.00" fill="#000000">    </text>
<text text-anchor="start" x="561.5478" y="-632.3" font-family="Arial" font-size="14.00" fill="#666666">[table]</text>
<polygon fill="none" stroke="#000000" points="426,-589.5 426,-619.5 619,-619.5 619,-589.5 426,-589.5"/>
<text text-anchor="start" x="432.6655" y="-600.9" font-family="Arial" font-size="14.00" fill="#000000">message_id    </text>
<text text-anchor="start" x="542.3331" y="-600.9" font-family="Arial" font-size="14.00" fill="#666666">[INTEGER]</text>
<polygon fill="none" stroke="#000000" points="426,-559.5 426,-589.5 619,-589.5 619,-559.5 426,-559.5"/>
<text text-anchor="start" x="433" y="-570.9" font-family="Arial" font-size="14.00" fill="#000000">room_id    </text>
<text text-anchor="start" x="517.763" y="-570.9" font-family="Arial" font-size="14.00" fill="#666666">[INTEGER]</text>
<polygon fill="none" stroke="#000000" points="426,-529.5 426,-559.5 619,-559.5 619,-529.5 426,-529.5"/>
<text text-anchor="start" x="433" y="-540.9" font-family="Arial" font-size="14.00" fill="#000000">msg    </text>
<text text-anchor="start" x="493.648" y="-540.9" font-family="Arial" font-size="14.00" fill="#666666">[TEXT]</text>
<polygon fill="none" stroke="#000000" points="426,-499.5 426,-529.5 619,-529.5 619,-499.5 426,-499.5"/>
<text text-anchor="start" x="433" y="-510.9" font-family="Arial" font-size="14.00" fill="#000000">account_id    </text>
<text text-anchor="start" x="534.8976" y="-510.9" font-family="Arial" font-size="14.00" fill="#666666">[INTEGER]</text>
<polygon fill="none" stroke="#000000" points="426,-469.5 426,-499.5 619,-499.5 619,-469.5 426,-469.5"/>
<text text-anchor="start" x="433" y="-480.9" font-family="Arial" font-size="14.00" fill="#000000">updated_at    </text>
<text text-anchor="start" x="537.2468" y="-480.9" font-family="Arial" font-size="14.00" fill="#666666">[TEXT]</text>
</g>
<!-- messages&#45;&gt;accounts -->
<g id="edge1" class="edge">
<title>messages:account_id&#45;&gt;accounts:account_id</title>
<path fill="none" stroke="#000000" d="M629.0288,-513.2152C659.316,-504.3179 636.9448,-451.499 670,-427 725.7754,-385.6617 755.3702,-410.4992 822,-391 942.6712,-355.6857 963.2676,-297.5 1089,-297.5"/>
<polygon fill="#000000" stroke="#000000" points="628.9189,-513.2292 618.4281,-510.0365 623.9595,-513.8646 619,-514.5 619,-514.5 619,-514.5 623.9595,-513.8646 619.5719,-518.9635 628.9189,-513.2292 628.9189,-513.2292"/>
<text text-anchor="start" x="7.4855" y="-524.5" font-family="Arial" font-size="10.00" fill="#000000">FOREIGN KEY (account_id) REFERENCES accounts (account_id) ON UPDATE NO ACTION ON DELETE NO ACTION MATCH NONE</text>
</g>
<!-- rooms -->
<g id="node5" class="node">
<title>rooms</title>
<polygon fill="#efefef" stroke="transparent" points="592,-252.5 592,-287.5 770,-287.5 770,-252.5 592,-252.5"/>
<polygon fill="none" stroke="#000000" points="592,-252.5 592,-287.5 770,-287.5 770,-252.5 592,-252.5"/>
<text text-anchor="start" x="619.8361" y="-265.3" font-family="Arial Bold" font-size="18.00" fill="#000000">rooms</text>
<text text-anchor="start" x="669.8329" y="-265.3" font-family="Arial" font-size="14.00" fill="#000000">    </text>
<text text-anchor="start" x="704.0377" y="-265.3" font-family="Arial" font-size="14.00" fill="#666666">[table]</text>
<polygon fill="none" stroke="#000000" points="592,-222.5 592,-252.5 770,-252.5 770,-222.5 592,-222.5"/>
<text text-anchor="start" x="599" y="-233.9" font-family="Arial" font-size="14.00" fill="#000000">room_id    </text>
<text text-anchor="start" x="683.763" y="-233.9" font-family="Arial" font-size="14.00" fill="#666666">[INTEGER]</text>
<polygon fill="none" stroke="#000000" points="592,-192.5 592,-222.5 770,-222.5 770,-192.5 592,-192.5"/>
<text text-anchor="start" x="599" y="-203.9" font-family="Arial" font-size="14.00" fill="#000000">updated_at    </text>
<text text-anchor="start" x="703.2468" y="-203.9" font-family="Arial" font-size="14.00" fill="#666666">[TEXT]</text>
<polygon fill="none" stroke="#000000" points="592,-162.5 592,-192.5 770,-192.5 770,-162.5 592,-162.5"/>
<text text-anchor="start" x="599" y="-173.9" font-family="Arial" font-size="14.00" fill="#000000">topic    </text>
<text text-anchor="start" x="662.7672" y="-173.9" font-family="Arial" font-size="14.00" fill="#666666">[TEXT]</text>
<polygon fill="none" stroke="#000000" points="592,-132.5 592,-162.5 770,-162.5 770,-132.5 592,-132.5"/>
<text text-anchor="start" x="599" y="-143.9" font-family="Arial" font-size="14.00" fill="#000000">name    </text>
<text text-anchor="start" x="668.2132" y="-143.9" font-family="Arial" font-size="14.00" fill="#666666">[TEXT]</text>
<polygon fill="none" stroke="#000000" points="592,-102.5 592,-132.5 770,-132.5 770,-102.5 592,-102.5"/>
<text text-anchor="start" x="598.9411" y="-113.9" font-family="Arial" font-size="14.00" fill="#000000">last_message    </text>
<text text-anchor="start" x="719.4993" y="-113.9" font-family="Arial" font-size="14.00" fill="#666666">[TEXT]</text>
</g>
<!-- messages&#45;&gt;rooms -->
<g id="edge2" class="edge">
<title>messages:room_id&#45;&gt;rooms:room_id</title>
<path fill="none" stroke="#000000" d="M629.098,-574.0574C719.9669,-565.5235 606.3857,-435.2826 592,-331 586.3212,-289.8343 550.4444,-237.5 592,-237.5"/>
<polygon fill="#000000" stroke="#000000" points="628.9904,-574.062 618.8029,-570.0043 623.9952,-574.281 619,-574.5 619,-574.5 619,-574.5 623.9952,-574.281 619.1971,-578.9957 628.9904,-574.062 628.9904,-574.062"/>
<text text-anchor="start" x="43.844" y="-584.5" font-family="Arial" font-size="10.00" fill="#000000">FOREIGN KEY (room_id) REFERENCES rooms (room_id) ON UPDATE NO ACTION ON DELETE NO ACTION MATCH NONE</text>
</g>
<!-- permissions -->
<g id="node3" class="node">
<title>permissions</title>
<polygon fill="#efefef" stroke="transparent" points="1425,-237.5 1425,-272.5 1629,-272.5 1629,-237.5 1425,-237.5"/>
<polygon fill="none" stroke="#000000" points="1425,-237.5 1425,-272.5 1629,-272.5 1629,-237.5 1425,-237.5"/>
<text text-anchor="start" x="1442.8357" y="-250.3" font-family="Arial Bold" font-size="18.00" fill="#000000">permissions</text>
<text text-anchor="start" x="1538.8333" y="-250.3" font-family="Arial" font-size="14.00" fill="#000000">    </text>
<text text-anchor="start" x="1573.0381" y="-250.3" font-family="Arial" font-size="14.00" fill="#666666">[table]</text>
<polygon fill="none" stroke="#000000" points="1425,-207.5 1425,-237.5 1629,-237.5 1629,-207.5 1425,-207.5"/>
<text text-anchor="start" x="1431.7286" y="-218.9" font-family="Arial" font-size="14.00" fill="#000000">permission_id    </text>
<text text-anchor="start" x="1552.27" y="-218.9" font-family="Arial" font-size="14.00" fill="#666666">[INTEGER]</text>
<polygon fill="none" stroke="#000000" points="1425,-177.5 1425,-207.5 1629,-207.5 1629,-177.5 1425,-177.5"/>
<text text-anchor="start" x="1432" y="-188.9" font-family="Arial" font-size="14.00" fill="#000000">updated_at    </text>
<text text-anchor="start" x="1536.2468" y="-188.9" font-family="Arial" font-size="14.00" fill="#666666">[TEXT]</text>
<polygon fill="none" stroke="#000000" points="1425,-147.5 1425,-177.5 1629,-177.5 1629,-147.5 1425,-147.5"/>
<text text-anchor="start" x="1432" y="-158.9" font-family="Arial" font-size="14.00" fill="#000000">roles    </text>
<text text-anchor="start" x="1496.5372" y="-158.9" font-family="Arial" font-size="14.00" fill="#666666">[TEXT]</text>
<polygon fill="none" stroke="#000000" points="1425,-117.5 1425,-147.5 1629,-147.5 1629,-117.5 1425,-117.5"/>
<text text-anchor="start" x="1432" y="-128.9" font-family="Arial" font-size="14.00" fill="#000000">level    </text>
<text text-anchor="start" x="1494.9832" y="-128.9" font-family="Arial" font-size="14.00" fill="#666666">[TEXT]</text>
</g>
<!-- room_participants -->
<g id="node4" class="node">
<title>room_participants</title>
<polygon fill="#efefef" stroke="transparent" points="723,-574.5 723,-609.5 952,-609.5 952,-574.5 723,-574.5"/>
<polygon fill="none" stroke="#000000" points="723,-574.5 723,-609.5 952,-609.5 952,-574.5 723,-574.5"/>
<text text-anchor="start" x="729.825" y="-587.3" font-family="Arial Bold" font-size="18.00" fill="#000000">room_participants</text>
<text text-anchor="start" x="872.844" y="-587.3" font-family="Arial" font-size="14.00" fill="#000000">    </text>
<text text-anchor="start" x="907.0488" y="-587.3" font-family="Arial" font-size="14.00" fill="#666666">[table]</text>
<polygon fill="none" stroke="#000000" points="723,-544.5 723,-574.5 952,-574.5 952,-544.5 723,-544.5"/>
<text text-anchor="start" x="730" y="-555.9" font-family="Arial" font-size="14.00" fill="#000000">room_id    </text>
<text text-anchor="start" x="814.763" y="-555.9" font-family="Arial" font-size="14.00" fill="#666666">[INTEGER]</text>
<polygon fill="none" stroke="#000000" points="723,-514.5 723,-544.5 952,-544.5 952,-514.5 723,-514.5"/>
<text text-anchor="start" x="730" y="-525.9" font-family="Arial" font-size="14.00" fill="#000000">account_id    </text>
<text text-anchor="start" x="831.8976" y="-525.9" font-family="Arial" font-size="14.00" fill="#666666">[INTEGER]</text>
</g>
<!-- room_participants&#45;&gt;accounts -->
<g id="edge3" class="edge">
<title>room_participants:account_id&#45;&gt;accounts:account_id</title>
<path fill="none" stroke="#000000" d="M962.1732,-528.5662C999.6943,-520.9236 980.2903,-467.9185 1004,-427 1038.5163,-367.4313 1020.1538,-297.5 1089,-297.5"/>
<polygon fill="#000000" stroke="#000000" points="961.9581,-528.5858 951.5886,-525.0188 956.9791,-529.0429 952,-529.5 952,-529.5 952,-529.5 956.9791,-529.0429 952.4114,-533.9812 961.9581,-528.5858 961.9581,-528.5858"/>
<text text-anchor="start" x="340.4855" y="-539.5" font-family="Arial" font-size="10.00" fill="#000000">FOREIGN KEY (account_id) REFERENCES accounts (account_id) ON UPDATE NO ACTION ON DELETE NO ACTION MATCH NONE</text>
</g>
<!-- room_participants&#45;&gt;rooms -->
<g id="edge4" class="edge">
<title>room_participants:room_id&#45;&gt;rooms:room_id</title>
<path fill="none" stroke="#000000" d="M712.8978,-558.8878C595.1379,-543.356 910.9554,-237.5 770,-237.5"/>
<polygon fill="#000000" stroke="#000000" points="713.0183,-558.895 722.7277,-563.9918 718.0092,-559.1975 723,-559.5 723,-559.5 723,-559.5 718.0092,-559.1975 723.2723,-555.0082 713.0183,-558.895 713.0183,-558.895"/>
<text text-anchor="start" x="147.844" y="-569.5" font-family="Arial" font-size="10.00" fill="#000000">FOREIGN KEY (room_id) REFERENCES rooms (room_id) ON UPDATE NO ACTION ON DELETE NO ACTION MATCH NONE</text>
</g>
<!-- user_characters -->
<g id="node6" class="node">
<title>user_characters</title>
<polygon fill="#efefef" stroke="transparent" points="1056,-589.5 1056,-624.5 1308,-624.5 1308,-589.5 1056,-589.5"/>
<polygon fill="none" stroke="#000000" points="1056,-589.5 1056,-624.5 1308,-624.5 1308,-589.5 1056,-589.5"/>
<text text-anchor="start" x="1081.3234" y="-602.3" font-family="Arial Bold" font-size="18.00" fill="#000000">user_characters</text>
<text text-anchor="start" x="1210.3456" y="-602.3" font-family="Arial" font-size="14.00" fill="#000000">    </text>
<text text-anchor="start" x="1244.5504" y="-602.3" font-family="Arial" font-size="14.00" fill="#666666">[table]</text>
<polygon fill="none" stroke="#000000" points="1056,-559.5 1056,-589.5 1308,-589.5 1308,-559.5 1056,-559.5"/>
<text text-anchor="start" x="1063" y="-570.9" font-family="Arial" font-size="14.00" fill="#000000">account_id    </text>
<text text-anchor="start" x="1164.8976" y="-570.9" font-family="Arial" font-size="14.00" fill="#666666">[INTEGER]</text>
<polygon fill="none" stroke="#000000" points="1056,-529.5 1056,-559.5 1308,-559.5 1308,-529.5 1056,-529.5"/>
<text text-anchor="start" x="1062.9881" y="-540.9" font-family="Arial" font-size="14.00" fill="#000000">character_account_id    </text>
<text text-anchor="start" x="1231.0105" y="-540.9" font-family="Arial" font-size="14.00" fill="#666666">[INTEGER]</text>
<polygon fill="none" stroke="#000000" points="1056,-499.5 1056,-529.5 1308,-529.5 1308,-499.5 1056,-499.5"/>
<text text-anchor="start" x="1063" y="-510.9" font-family="Arial" font-size="14.00" fill="#000000">index    </text>
<text text-anchor="start" x="1130.6592" y="-510.9" font-family="Arial" font-size="14.00" fill="#666666">[INTEGER]</text>
</g>
<!-- user_characters&#45;&gt;accounts -->
<g id="edge5" class="edge">
<title>user_characters:character_account_id&#45;&gt;accounts:account_id</title>
<path fill="none" stroke="#000000" d="M1045.7913,-542.8439C1020.38,-533.3284 1035.1791,-485.0578 1056,-457 1116.3259,-375.7062 1213.6741,-472.2938 1274,-391 1298.7637,-357.629 1315.5556,-297.5 1274,-297.5"/>
<polygon fill="#000000" stroke="#000000" points="1046.129,-542.8986 1055.2794,-548.9419 1051.0645,-543.6993 1056,-544.5 1056,-544.5 1056,-544.5 1051.0645,-543.6993 1056.7206,-540.0581 1046.129,-542.8986 1046.129,-542.8986"/>
<text text-anchor="start" x="1062.8695" y="-554.5" font-family="Arial" font-size="10.00" fill="#000000">FOREIGN KEY (character_account_id) REFERENCES accounts (account_id) ON UPDATE NO ACTION ON DELETE NO ACTION MATCH NONE</text>
</g>
<!-- user_characters&#45;&gt;accounts -->
<g id="edge6" class="edge">
<title>user_characters:account_id&#45;&gt;accounts:account_id</title>
<path fill="none" stroke="#000000" d="M1046.0499,-573.4172C1006.7948,-564.0402 1027.068,-495.9881 1056,-457 1116.3259,-375.7062 1213.6741,-472.2938 1274,-391 1298.7637,-357.629 1315.5556,-297.5 1274,-297.5"/>
<polygon fill="#000000" stroke="#000000" points="1046.0587,-573.4181 1055.5131,-578.9736 1051.0293,-573.9591 1056,-574.5 1056,-574.5 1056,-574.5 1051.0293,-573.9591 1056.4869,-570.0264 1046.0587,-573.4181 1046.0587,-573.4181"/>
<text text-anchor="start" x="1063.4855" y="-584.5" font-family="Arial" font-size="10.00" fill="#000000">FOREIGN KEY (account_id) REFERENCES accounts (account_id) ON UPDATE NO ACTION ON DELETE NO ACTION MATCH NONE</text>
</g>
<!-- user_permissions -->
<g id="node7" class="node">
<title>user_permissions</title>
<polygon fill="#efefef" stroke="transparent" points="1413,-574.5 1413,-609.5 1640,-609.5 1640,-574.5 1413,-574.5"/>
<polygon fill="none" stroke="#000000" points="1413,-574.5 1413,-609.5 1640,-609.5 1640,-574.5 1413,-574.5"/>
<text text-anchor="start" x="1419.8303" y="-587.3" font-family="Arial Bold" font-size="18.00" fill="#000000">user_permissions</text>
<text text-anchor="start" x="1560.8387" y="-587.3" font-family="Arial" font-size="14.00" fill="#000000">    </text>
<text text-anchor="start" x="1595.0435" y="-587.3" font-family="Arial" font-size="14.00" fill="#666666">[table]</text>
<polygon fill="none" stroke="#000000" points="1413,-544.5 1413,-574.5 1640,-574.5 1640,-544.5 1413,-544.5"/>
<text text-anchor="start" x="1420" y="-555.9" font-family="Arial" font-size="14.00" fill="#000000">account_id    </text>
<text text-anchor="start" x="1521.8976" y="-555.9" font-family="Arial" font-size="14.00" fill="#666666">[INTEGER]</text>
<polygon fill="none" stroke="#000000" points="1413,-514.5 1413,-544.5 1640,-544.5 1640,-514.5 1413,-514.5"/>
<text text-anchor="start" x="1420" y="-525.9" font-family="Arial" font-size="14.00" fill="#000000">permission_id    </text>
<text text-anchor="start" x="1540.5414" y="-525.9" font-family="Arial" font-size="14.00" fill="#666666">[INTEGER]</text>
</g>
<!-- user_permissions&#45;&gt;accounts -->
<g id="edge8" class="edge">
<title>user_permissions:account_id&#45;&gt;accounts:account_id</title>
<path fill="none" stroke="#000000" d="M1402.8805,-558.7331C1354.0126,-550.6231 1387.7503,-479.8685 1360,-427 1327.8893,-365.8242 1343.0911,-297.5 1274,-297.5"/>
<polygon fill="#000000" stroke="#000000" points="1403.0286,-558.7443 1412.6599,-563.9871 1408.0143,-559.1221 1413,-559.5 1413,-559.5 1413,-559.5 1408.0143,-559.1221 1413.3401,-555.0129 1403.0286,-558.7443 1403.0286,-558.7443"/>
<text text-anchor="start" x="1420.4855" y="-569.5" font-family="Arial" font-size="10.00" fill="#000000">FOREIGN KEY (account_id) REFERENCES accounts (account_id) ON UPDATE NO ACTION ON DELETE NO ACTION MATCH NONE</text>
</g>
<!-- user_permissions&#45;&gt;permissions -->
<g id="edge7" class="edge">
<title>user_permissions:permission_id&#45;&gt;permissions:permission_id</title>
<path fill="none" stroke="#000000" d="M1526.5808,-504.4035C1515.5319,-369.5788 1290.8884,-222.5 1425,-222.5"/>
<polygon fill="#000000" stroke="#000000" points="1526.585,-504.5086 1522.5039,-514.6867 1526.7925,-509.5043 1527,-514.5 1527,-514.5 1527,-514.5 1526.7925,-509.5043 1531.4961,-514.3133 1526.585,-504.5086 1526.585,-504.5086"/>
<text text-anchor="start" x="1533.51" y="-524.5" font-family="Arial" font-size="10.00" fill="#000000">FOREIGN KEY (permission_id) REFERENCES permissions (permission_id) ON UPDATE NO ACTION ON DELETE NO ACTION MATCH NONE</text>
</g>
</g>
</svg>
