<?xml version="1.0" encoding="UTF-8" standalone="no"?>
<!DOCTYPE svg PUBLIC "-//W3C//DTD SVG 1.1//EN"
 "http://www.w3.org/Graphics/SVG/1.1/DTD/svg11.dtd">
<!-- Generated by graphviz version 2.40.1 (20161225.0304)
 -->
<!-- Title: user_characters Pages: 1 -->
<svg width="941pt" height="652pt"
 viewBox="0.00 0.00 940.50 652.00" xmlns="http://www.w3.org/2000/svg" xmlns:xlink="http://www.w3.org/1999/xlink">
<g id="graph0" class="graph" transform="scale(1 1) rotate(0) translate(4 648)">
<title>user_characters</title>
<polygon fill="#ffffff" stroke="transparent" points="-4,4 -4,-648 936.5,-648 936.5,4 -4,4"/>
<!-- user_characters -->
<g id="node1" class="node">
<title>user_characters</title>
<polygon fill="#efefef" stroke="transparent" points="666,-562.5 666,-597.5 887,-597.5 887,-562.5 666,-562.5"/>
<polygon fill="none" stroke="#000000" points="666,-562.5 666,-597.5 887,-597.5 887,-562.5 666,-562.5"/>
<text text-anchor="start" x="675.8234" y="-575.3" font-family="Arial Bold" font-size="18.00" fill="#000000">user_characters</text>
<text text-anchor="start" x="804.8456" y="-575.3" font-family="Arial" font-size="14.00" fill="#000000">    </text>
<text text-anchor="start" x="839.0504" y="-575.3" font-family="Arial" font-size="14.00" fill="#666666">[table]</text>
<polygon fill="none" stroke="#000000" points="666,-532.5 666,-562.5 887,-562.5 887,-532.5 666,-532.5"/>
<text text-anchor="start" x="673" y="-543.9" font-family="Arial" font-size="14.00" fill="#000000">account_id </text>
<text text-anchor="start" x="744.5834" y="-543.9" font-family="Arial" font-size="14.00" fill="#666666">[INTEGER]</text>
<polygon fill="none" stroke="#000000" points="666,-502.5 666,-532.5 887,-532.5 887,-502.5 666,-502.5"/>
<text text-anchor="start" x="672.6452" y="-513.9" font-family="Arial" font-size="14.00" fill="#000000">character_account_id </text>
<text text-anchor="start" x="810.3534" y="-513.9" font-family="Arial" font-size="14.00" fill="#666666">[INTEGER]</text>
<polygon fill="none" stroke="#000000" points="666,-472.5 666,-502.5 887,-502.5 887,-472.5 666,-472.5"/>
<text text-anchor="start" x="673" y="-483.9" font-family="Arial" font-size="14.00" fill="#000000">index </text>
<text text-anchor="start" x="710.345" y="-483.9" font-family="Arial" font-size="14.00" fill="#666666">[INTEGER]</text>
<polygon fill="none" stroke="#000000" stroke-width="3" points="664,-471.5 664,-599.5 888,-599.5 888,-471.5 664,-471.5"/>
</g>
<!-- accounts -->
<g id="node2" class="node">
<title>accounts</title>
<polygon fill="#efefef" stroke="transparent" points="684,-312.5 684,-347.5 869,-347.5 869,-312.5 684,-312.5"/>
<polygon fill="none" stroke="#000000" points="684,-312.5 684,-347.5 869,-347.5 869,-312.5 684,-312.5"/>
<text text-anchor="start" x="704.321" y="-325.3" font-family="Arial Bold" font-size="18.00" fill="#000000">accounts</text>
<text text-anchor="start" x="776.348" y="-325.3" font-family="Arial" font-size="14.00" fill="#000000">    </text>
<text text-anchor="start" x="810.5528" y="-325.3" font-family="Arial" font-size="14.00" fill="#666666">[table]</text>
<polygon fill="none" stroke="#000000" points="684,-282.5 684,-312.5 869,-312.5 869,-282.5 684,-282.5"/>
<text text-anchor="start" x="690.5505" y="-293.9" font-family="Arial" font-size="14.00" fill="#000000">account_id    </text>
<text text-anchor="start" x="792.4481" y="-293.9" font-family="Arial" font-size="14.00" fill="#666666">[INTEGER]</text>
<polygon fill="none" stroke="#000000" points="684,-252.5 684,-282.5 869,-282.5 869,-252.5 684,-252.5"/>
<text text-anchor="start" x="691" y="-263.9" font-family="Arial" font-size="14.00" fill="#000000">created_at    </text>
<text text-anchor="start" x="791.3422" y="-263.9" font-family="Arial" font-size="14.00" fill="#666666">[TEXT]</text>
<polygon fill="none" stroke="#000000" points="684,-222.5 684,-252.5 869,-252.5 869,-222.5 684,-222.5"/>
<text text-anchor="start" x="691" y="-233.9" font-family="Arial" font-size="14.00" fill="#000000">password    </text>
<text text-anchor="start" x="785.1024" y="-233.9" font-family="Arial" font-size="14.00" fill="#666666">[TEXT]</text>
<polygon fill="none" stroke="#000000" points="684,-192.5 684,-222.5 869,-222.5 869,-192.5 684,-192.5"/>
<text text-anchor="start" x="691" y="-203.9" font-family="Arial" font-size="14.00" fill="#000000">email    </text>
<text text-anchor="start" x="758.6438" y="-203.9" font-family="Arial" font-size="14.00" fill="#666666">[TEXT]</text>
<polygon fill="none" stroke="#000000" points="684,-162.5 684,-192.5 869,-192.5 869,-162.5 684,-162.5"/>
<text text-anchor="start" x="691" y="-173.9" font-family="Arial" font-size="14.00" fill="#000000">login_tokens    </text>
<text text-anchor="start" x="803.7868" y="-173.9" font-family="Arial" font-size="14.00" fill="#666666">[TEXT]</text>
<polygon fill="none" stroke="#000000" points="684,-132.5 684,-162.5 869,-162.5 869,-132.5 684,-132.5"/>
<text text-anchor="start" x="691" y="-143.9" font-family="Arial" font-size="14.00" fill="#000000">status    </text>
<text text-anchor="start" x="762.5512" y="-143.9" font-family="Arial" font-size="14.00" fill="#666666">[TEXT]</text>
<polygon fill="none" stroke="#000000" points="684,-102.5 684,-132.5 869,-132.5 869,-102.5 684,-102.5"/>
<text text-anchor="start" x="691" y="-113.9" font-family="Arial" font-size="14.00" fill="#000000">updated_at    </text>
<text text-anchor="start" x="795.2468" y="-113.9" font-family="Arial" font-size="14.00" fill="#666666">[TEXT]</text>
<polygon fill="none" stroke="#000000" points="684,-72.5 684,-102.5 869,-102.5 869,-72.5 684,-72.5"/>
<text text-anchor="start" x="691" y="-83.9" font-family="Arial" font-size="14.00" fill="#000000">username    </text>
<text text-anchor="start" x="787.439" y="-83.9" font-family="Arial" font-size="14.00" fill="#666666">[TEXT]</text>
<polygon fill="none" stroke="#000000" points="684,-42.5 684,-72.5 869,-72.5 869,-42.5 684,-42.5"/>
<text text-anchor="start" x="691" y="-53.9" font-family="Arial" font-size="14.00" fill="#000000">account_type    </text>
<text text-anchor="start" x="808.4642" y="-53.9" font-family="Arial" font-size="14.00" fill="#666666">[TEXT]</text>
</g>
<!-- user_characters&#45;&gt;accounts -->
<g id="edge1" class="edge">
<title>user_characters:account_id&#45;&gt;accounts:account_id</title>
<path fill="none" stroke="#000000" d="M655.9344,-546.7828C555.8175,-532.1191 576.0825,-297.5 684,-297.5"/>
<polygon fill="#000000" stroke="#000000" points="656.0253,-546.7892 665.6802,-551.9886 661.0126,-547.1446 666,-547.5 666,-547.5 666,-547.5 661.0126,-547.1446 666.3198,-543.0114 656.0253,-546.7892 656.0253,-546.7892"/>
<text text-anchor="start" x="54.4855" y="-557.5" font-family="Arial" font-size="10.00" fill="#000000">FOREIGN KEY (account_id) REFERENCES accounts (account_id) ON UPDATE NO ACTION ON DELETE NO ACTION MATCH NONE</text>
</g>
<!-- user_characters&#45;&gt;accounts -->
<g id="edge2" class="edge">
<title>user_characters:character_account_id&#45;&gt;accounts:account_id</title>
<path fill="none" stroke="#000000" d="M655.8187,-516.6591C569.3009,-501.8888 589.4403,-297.5 684,-297.5"/>
<polygon fill="#000000" stroke="#000000" points="656.0339,-516.6768 665.6295,-521.9847 661.017,-517.0884 666,-517.5 666,-517.5 666,-517.5 661.017,-517.0884 666.3705,-513.0153 656.0339,-516.6768 656.0339,-516.6768"/>
<text text-anchor="start" x="6.8695" y="-527.5" font-family="Arial" font-size="10.00" fill="#000000">FOREIGN KEY (character_account_id) REFERENCES accounts (account_id) ON UPDATE NO ACTION ON DELETE NO ACTION MATCH NONE</text>
</g>
</g>
</svg>
