<?xml version="1.0" encoding="UTF-8" standalone="no"?>
<!DOCTYPE svg PUBLIC "-//W3C//DTD SVG 1.1//EN"
 "http://www.w3.org/Graphics/SVG/1.1/DTD/svg11.dtd">
<!-- Generated by graphviz version 2.40.1 (20161225.0304)
 -->
<!-- Title: user_permissions Pages: 1 -->
<svg width="1512pt" height="622pt"
 viewBox="0.00 0.00 1512.00 622.00" xmlns="http://www.w3.org/2000/svg" xmlns:xlink="http://www.w3.org/1999/xlink">
<g id="graph0" class="graph" transform="scale(1 1) rotate(0) translate(4 618)">
<title>user_permissions</title>
<polygon fill="#ffffff" stroke="transparent" points="-4,4 -4,-618 1508,-618 1508,4 -4,4"/>
<!-- user_permissions -->
<g id="node1" class="node">
<title>user_permissions</title>
<polygon fill="#efefef" stroke="transparent" points="619,-532.5 619,-567.5 846,-567.5 846,-532.5 619,-532.5"/>
<polygon fill="none" stroke="#000000" points="619,-532.5 619,-567.5 846,-567.5 846,-532.5 619,-532.5"/>
<text text-anchor="start" x="625.8303" y="-545.3" font-family="Arial Bold" font-size="18.00" fill="#000000">user_permissions</text>
<text text-anchor="start" x="766.8387" y="-545.3" font-family="Arial" font-size="14.00" fill="#000000">    </text>
<text text-anchor="start" x="801.0435" y="-545.3" font-family="Arial" font-size="14.00" fill="#666666">[table]</text>
<polygon fill="none" stroke="#000000" points="619,-502.5 619,-532.5 846,-532.5 846,-502.5 619,-502.5"/>
<text text-anchor="start" x="626" y="-513.9" font-family="Arial" font-size="14.00" fill="#000000">account_id </text>
<text text-anchor="start" x="697.5834" y="-513.9" font-family="Arial" font-size="14.00" fill="#666666">[INTEGER]</text>
<polygon fill="none" stroke="#000000" points="619,-472.5 619,-502.5 846,-502.5 846,-472.5 619,-472.5"/>
<text text-anchor="start" x="626" y="-483.9" font-family="Arial" font-size="14.00" fill="#000000">permission_id </text>
<text text-anchor="start" x="716.2272" y="-483.9" font-family="Arial" font-size="14.00" fill="#666666">[INTEGER]</text>
<polygon fill="none" stroke="#000000" stroke-width="3" points="617,-471.5 617,-569.5 847,-569.5 847,-471.5 617,-471.5"/>
</g>
<!-- accounts -->
<g id="node2" class="node">
<title>accounts</title>
<polygon fill="#efefef" stroke="transparent" points="491,-312.5 491,-347.5 676,-347.5 676,-312.5 491,-312.5"/>
<polygon fill="none" stroke="#000000" points="491,-312.5 491,-347.5 676,-347.5 676,-312.5 491,-312.5"/>
<text text-anchor="start" x="511.321" y="-325.3" font-family="Arial Bold" font-size="18.00" fill="#000000">accounts</text>
<text text-anchor="start" x="583.348" y="-325.3" font-family="Arial" font-size="14.00" fill="#000000">    </text>
<text text-anchor="start" x="617.5528" y="-325.3" font-family="Arial" font-size="14.00" fill="#666666">[table]</text>
<polygon fill="none" stroke="#000000" points="491,-282.5 491,-312.5 676,-312.5 676,-282.5 491,-282.5"/>
<text text-anchor="start" x="497.5505" y="-293.9" font-family="Arial" font-size="14.00" fill="#000000">account_id    </text>
<text text-anchor="start" x="599.4481" y="-293.9" font-family="Arial" font-size="14.00" fill="#666666">[INTEGER]</text>
<polygon fill="none" stroke="#000000" points="491,-252.5 491,-282.5 676,-282.5 676,-252.5 491,-252.5"/>
<text text-anchor="start" x="498" y="-263.9" font-family="Arial" font-size="14.00" fill="#000000">created_at    </text>
<text text-anchor="start" x="598.3422" y="-263.9" font-family="Arial" font-size="14.00" fill="#666666">[TEXT]</text>
<polygon fill="none" stroke="#000000" points="491,-222.5 491,-252.5 676,-252.5 676,-222.5 491,-222.5"/>
<text text-anchor="start" x="498" y="-233.9" font-family="Arial" font-size="14.00" fill="#000000">password    </text>
<text text-anchor="start" x="592.1024" y="-233.9" font-family="Arial" font-size="14.00" fill="#666666">[TEXT]</text>
<polygon fill="none" stroke="#000000" points="491,-192.5 491,-222.5 676,-222.5 676,-192.5 491,-192.5"/>
<text text-anchor="start" x="498" y="-203.9" font-family="Arial" font-size="14.00" fill="#000000">email    </text>
<text text-anchor="start" x="565.6438" y="-203.9" font-family="Arial" font-size="14.00" fill="#666666">[TEXT]</text>
<polygon fill="none" stroke="#000000" points="491,-162.5 491,-192.5 676,-192.5 676,-162.5 491,-162.5"/>
<text text-anchor="start" x="498" y="-173.9" font-family="Arial" font-size="14.00" fill="#000000">login_tokens    </text>
<text text-anchor="start" x="610.7868" y="-173.9" font-family="Arial" font-size="14.00" fill="#666666">[TEXT]</text>
<polygon fill="none" stroke="#000000" points="491,-132.5 491,-162.5 676,-162.5 676,-132.5 491,-132.5"/>
<text text-anchor="start" x="498" y="-143.9" font-family="Arial" font-size="14.00" fill="#000000">status    </text>
<text text-anchor="start" x="569.5512" y="-143.9" font-family="Arial" font-size="14.00" fill="#666666">[TEXT]</text>
<polygon fill="none" stroke="#000000" points="491,-102.5 491,-132.5 676,-132.5 676,-102.5 491,-102.5"/>
<text text-anchor="start" x="498" y="-113.9" font-family="Arial" font-size="14.00" fill="#000000">updated_at    </text>
<text text-anchor="start" x="602.2468" y="-113.9" font-family="Arial" font-size="14.00" fill="#666666">[TEXT]</text>
<polygon fill="none" stroke="#000000" points="491,-72.5 491,-102.5 676,-102.5 676,-72.5 491,-72.5"/>
<text text-anchor="start" x="498" y="-83.9" font-family="Arial" font-size="14.00" fill="#000000">username    </text>
<text text-anchor="start" x="594.439" y="-83.9" font-family="Arial" font-size="14.00" fill="#666666">[TEXT]</text>
<polygon fill="none" stroke="#000000" points="491,-42.5 491,-72.5 676,-72.5 676,-42.5 491,-42.5"/>
<text text-anchor="start" x="498" y="-53.9" font-family="Arial" font-size="14.00" fill="#000000">account_type    </text>
<text text-anchor="start" x="615.4642" y="-53.9" font-family="Arial" font-size="14.00" fill="#666666">[TEXT]</text>
</g>
<!-- user_permissions&#45;&gt;accounts -->
<g id="edge1" class="edge">
<title>user_permissions:account_id&#45;&gt;accounts:account_id</title>
<path fill="none" stroke="#000000" d="M608.9041,-515.9887C582.8283,-506.8955 601.4806,-458.7859 619,-427 633.4632,-400.759 661.5368,-417.241 676,-391 696.059,-354.6063 717.5556,-297.5 676,-297.5"/>
<polygon fill="#000000" stroke="#000000" points="609.1102,-516.0195 618.3338,-521.9504 614.0551,-516.7598 619,-517.5 619,-517.5 619,-517.5 614.0551,-516.7598 619.6662,-513.0496 609.1102,-516.0195 609.1102,-516.0195"/>
<text text-anchor="start" x="7.4855" y="-527.5" font-family="Arial" font-size="10.00" fill="#000000">FOREIGN KEY (account_id) REFERENCES accounts (account_id) ON UPDATE NO ACTION ON DELETE NO ACTION MATCH NONE</text>
</g>
<!-- permissions -->
<g id="node3" class="node">
<title>permissions</title>
<polygon fill="#efefef" stroke="transparent" points="780,-237.5 780,-272.5 984,-272.5 984,-237.5 780,-237.5"/>
<polygon fill="none" stroke="#000000" points="780,-237.5 780,-272.5 984,-272.5 984,-237.5 780,-237.5"/>
<text text-anchor="start" x="797.8357" y="-250.3" font-family="Arial Bold" font-size="18.00" fill="#000000">permissions</text>
<text text-anchor="start" x="893.8333" y="-250.3" font-family="Arial" font-size="14.00" fill="#000000">    </text>
<text text-anchor="start" x="928.0381" y="-250.3" font-family="Arial" font-size="14.00" fill="#666666">[table]</text>
<polygon fill="none" stroke="#000000" points="780,-207.5 780,-237.5 984,-237.5 984,-207.5 780,-207.5"/>
<text text-anchor="start" x="786.7286" y="-218.9" font-family="Arial" font-size="14.00" fill="#000000">permission_id    </text>
<text text-anchor="start" x="907.27" y="-218.9" font-family="Arial" font-size="14.00" fill="#666666">[INTEGER]</text>
<polygon fill="none" stroke="#000000" points="780,-177.5 780,-207.5 984,-207.5 984,-177.5 780,-177.5"/>
<text text-anchor="start" x="787" y="-188.9" font-family="Arial" font-size="14.00" fill="#000000">updated_at    </text>
<text text-anchor="start" x="891.2468" y="-188.9" font-family="Arial" font-size="14.00" fill="#666666">[TEXT]</text>
<polygon fill="none" stroke="#000000" points="780,-147.5 780,-177.5 984,-177.5 984,-147.5 780,-147.5"/>
<text text-anchor="start" x="787" y="-158.9" font-family="Arial" font-size="14.00" fill="#000000">roles    </text>
<text text-anchor="start" x="851.5372" y="-158.9" font-family="Arial" font-size="14.00" fill="#666666">[TEXT]</text>
<polygon fill="none" stroke="#000000" points="780,-117.5 780,-147.5 984,-147.5 984,-117.5 780,-117.5"/>
<text text-anchor="start" x="787" y="-128.9" font-family="Arial" font-size="14.00" fill="#000000">level    </text>
<text text-anchor="start" x="849.9832" y="-128.9" font-family="Arial" font-size="14.00" fill="#666666">[TEXT]</text>
</g>
<!-- user_permissions&#45;&gt;permissions -->
<g id="edge2" class="edge">
<title>user_permissions:permission_id&#45;&gt;permissions:permission_id</title>
<path fill="none" stroke="#000000" d="M855.7291,-484.8991C866.7443,-476.3886 851.9568,-448.6737 846,-427 830.7895,-371.6569 795.2105,-371.3431 780,-316 768.9872,-275.9303 738.4444,-222.5 780,-222.5"/>
<polygon fill="#000000" stroke="#000000" points="855.6608,-484.9173 844.8378,-483.1527 850.8304,-486.2087 846,-487.5 846,-487.5 846,-487.5 850.8304,-486.2087 847.1622,-491.8473 855.6608,-484.9173 855.6608,-484.9173"/>
<text text-anchor="start" x="852.51" y="-497.5" font-family="Arial" font-size="10.00" fill="#000000">FOREIGN KEY (permission_id) REFERENCES permissions (permission_id) ON UPDATE NO ACTION ON DELETE NO ACTION MATCH NONE</text>
</g>
</g>
</svg>
